<?xml version="1.0" encoding="UTF-8" standalone="no"?>
<svg
   xmlns:dc="http://purl.org/dc/elements/1.1/"
   xmlns:cc="http://creativecommons.org/ns#"
   xmlns:rdf="http://www.w3.org/1999/02/22-rdf-syntax-ns#"
   xmlns:svg="http://www.w3.org/2000/svg"
   xmlns="http://www.w3.org/2000/svg"
   viewBox="0 0 428.1038 809.37498"
   height="863.33331"
   width="456.64404"
   xml:space="preserve"
   version="1.1"
   id="svg2"><title
     id="title7771">Business mand and woman - laughing</title><metadata
     id="metadata8"><rdf:RDF><cc:Work
         rdf:about=""><dc:format>image/svg+xml</dc:format><dc:type
           rdf:resource="http://purl.org/dc/dcmitype/StillImage" /><dc:title>Business mand and woman - laughing</dc:title><cc:license
           rdf:resource="http://creativecommons.org/publicdomain/zero/1.0/" /><dc:subject><rdf:Bag><rdf:li>man</rdf:li><rdf:li>woman</rdf:li><rdf:li>male</rdf:li><rdf:li>female</rdf:li><rdf:li>work</rdf:li><rdf:li>office</rdf:li><rdf:li>laughing</rdf:li><rdf:li>laugh</rdf:li><rdf:li>fun</rdf:li><rdf:li>suit</rdf:li><rdf:li>tie</rdf:li><rdf:li>publicdomainq.net</rdf:li></rdf:Bag></dc:subject><dc:description>This image was adapted from a picture posted to publicdomainq.net. All of the images on these sites are in the public domain i.e. CC0. This site is only in Japanese but can be easily navigated with Google Translate.</dc:description></cc:Work><cc:License
         rdf:about="http://creativecommons.org/publicdomain/zero/1.0/"><cc:permits
           rdf:resource="http://creativecommons.org/ns#Reproduction" /><cc:permits
           rdf:resource="http://creativecommons.org/ns#Distribution" /><cc:permits
           rdf:resource="http://creativecommons.org/ns#DerivativeWorks" /></cc:License></rdf:RDF></metadata><defs
     id="defs6" /><g
     transform="matrix(0.45424854,0,0,-0.45424854,4.6703162,804.64394)"
     id="g12"><path
       id="path18"
       style="fill:#6785cb;fill-opacity:1;fill-rule:nonzero;stroke:none"
       d="m 372.406,642.352 c 0,0 -225.254,-90.102 -258.75,-99.782 C 57.4063,526.32 15.9531,359.191 15.9531,7.42188 H 903.031 c 0,351.76912 -41.453,518.89812 -97.703,535.14812 -33.496,9.68 -258.75,99.782 -258.75,99.782 h -170" /><path
       id="path20"
       style="fill:#ffffff;fill-opacity:1;fill-rule:nonzero;stroke:none"
       d="m 410.707,672.57 c 0,0 -57.215,-10.5 -66.766,-86.25 -6.718,-53.261 -14.55,-182.441 56.836,-464.59 l 120.653,-2.261 c 72.004,283.722 64.152,413.441 57.414,466.851 -9.551,75.75 -66.77,86.25 -66.77,86.25 H 410.707" /><path
       id="path22"
       style="fill:#5ebbec;fill-opacity:1;fill-rule:nonzero;stroke:none"
       d="m 428.305,7 c -10.274,36.1289 -19.414,82.6719 -27.528,114.73 l -2.207,13.61 43.809,344.73 -11.203,46.25 -0.184,11.2 30.399,40.05 30.937,-40.75 -0.723,-10.5 -11.199,-46.25 44.766,-341.398 -3.742,-19.203 C 513.461,88.0703 504.516,42.2813 494.477,7" /><path
       id="path24"
       style="fill:#fcd0b4;fill-opacity:1;fill-rule:nonzero;stroke:none"
       d="m 525.063,690.988 c 0,0 2.167,-35.25 1.66,-53.418 0,0 -19.168,-46.25 -65.489,-60 -46.316,13.75 -65.488,60 -65.488,60 0.246,-0.269 -1.922,53.418 -1.922,53.418" /><path
       id="path26"
       style="fill:#7b4b4b;fill-opacity:1;fill-rule:nonzero;stroke:none;stroke-width:1"
       d="m 61.968805,1143.02 c -21.25,59.59 -17.2422,93.79 -17.2422,93.79 l -16.8985,-32.31 c -77.5,302.08 86.249905,356.82 86.249905,356.82 0,0 -64.824105,20 -63.038905,83.75 0,0 89.288905,-21.25 187.616905,36.25 91.016,53.23 220.157,89.63 350.83999,64.69 117.91,-22.5 140.832,-106.09 140.832,-106.09 0,0 117.09802,-16.81 161.25002,-142.91 47.5,-135.69 7.5,-266.94 7.5,-266.94 l -12.199,36.06 c 0,0 -2.606,-53.52 -32.82,-124.55 l -12.903,-36.25 -761.663815,-16.66 -17.5234,54.35" /><path
       id="path28"
       style="fill:#c79485;fill-opacity:1;fill-rule:nonzero;stroke:none"
       d="m 63.6602,1137.78 15.832,-49.11 23.1208,0.51 -38.5349,48.24 c -0.0898,0.02 -0.2734,0.23 -0.4179,0.36 z m 827.9178,359.23 c -44.152,126.1 -161.25,142.91 -161.25,142.91 0,0 -22.922,83.59 -140.832,106.09 -130.683,24.94 -259.824,-11.46 -350.84,-64.69 -98.328,-57.5 -187.6169,-36.25 -187.6169,-36.25 -1.7852,-63.75 63.0389,-83.75 63.0389,-83.75 0,0 -163.7499,-54.74 -86.2499,-356.82 l 2.7539,5.27 c -0.6992,3.12 -1.2617,6.14 -1.5039,8.9 -23.74997,270 124.0859,341.7 124.0859,341.7 0,0 15.602,49.39 113.93,106.89 91.015,53.21 210.058,79.79 341.582,59.72 129.433,-19.75 128.39,-126.18 128.39,-126.18 0,0 122.918,-23.84 167.664,-150.65 -3.359,15.43 -7.636,31.12 -13.152,46.86" /><path
       id="path30"
       style="fill:#fcd0b4;fill-opacity:1;fill-rule:nonzero;stroke:none"
       d="m 149.078,922.641 c -106.2499,-5 -153.74988,141.589 -116.2499,194.089 27.0508,37.88 81.6919,13.53 91.8989,-7.23" /><path
       id="path32"
       style="fill:#de9284;fill-opacity:1;fill-rule:nonzero;stroke:none"
       d="m 122.359,1050.41 c 10.028,-28.71 22.946,-71.156 3.305,-78.023 -19.641,-6.856 -43.6835,10.851 -53.7109,39.563 -10.0312,28.7 -2.2461,57.55 17.3946,64.4 19.6563,6.87 22.9803,2.75 33.0113,-25.94" /><path
       id="path34"
       style="fill:#fcd0b4;fill-opacity:1;fill-rule:nonzero;stroke:none"
       d="m 774.078,922.641 c 106.25,-5 153.75,141.589 116.25,194.089 -27.051,37.88 -81.691,13.53 -91.906,-7.23" /><path
       id="path36"
       style="fill:#de9284;fill-opacity:1;fill-rule:nonzero;stroke:none"
       d="m 396,709.781 h 126.973 l 1.379,-48.179 c 0,0 -51.106,-47.512 -131.946,-25.43 l 2.403,24.238 1.191,49.371" /><path
       id="path38"
       style="fill:#fcd0b4;fill-opacity:1;fill-rule:nonzero;stroke:none"
       d="M 258.52,1449.08 C 131.578,1417.57 125.328,1204.5 125.328,1204.5 c -2.89,-113.57 2.227,-308.773 71.25,-383.109 68.563,-73.832 135,-110 193.75,-127.5 0,0 72.5,-24.172 142.5,0 58.75,17.5 125.184,53.668 193.75,127.5 75.223,81.007 74.559,307.429 70.32,411.279 -1.25,30.76 -18.152,65.94 -25.527,74.71 -107.293,127.69 -106.992,206.63 -106.992,206.63 l -15.098,-18.15 c -27.664,-27.64 -78.601,-55.15 -171.797,-68.85 0,0 33.34,113.32 60,133.32 0,0 -116.66,-148.32 -306.66,-183.32 0,0 5.977,25.71 21.485,59.28 l 6.211,12.79" /><path
       id="path40"
       style="fill:#231f20;fill-opacity:1;fill-rule:nonzero;stroke:none"
       d="m 365.863,1291.25 c -4.121,-3.46 -15.019,3.39 -30.742,12.96 -15.527,9.4 -37.195,21.27 -57.793,18.29 -20.73,-2.46 -38.543,-19.16 -49.148,-32.36 -11.047,-13.39 -15.2,-23.54 -20.36,-24.01 -2.531,-0.15 -5.359,3.16 -6.48,9.76 -1.125,6.53 -0.445,15.98 3.254,26.65 3.711,10.64 10.312,22.72 21.308,33.8 10.821,10.96 27.032,21.06 46.563,23.52 19.531,2.62 37.773,-3.06 50.859,-10.63 13.34,-7.61 22.746,-16.86 29.512,-25.11 13.398,-16.75 16.855,-29.71 13.027,-32.87" /><path
       id="path42"
       style="fill:#231f20;fill-opacity:1;fill-rule:nonzero;stroke:none"
       d="m 557.289,1291.25 c -3.828,3.16 -0.371,16.12 13.027,32.87 6.77,8.25 16.172,17.5 29.512,25.11 13.086,7.57 31.328,13.25 50.86,10.63 19.531,-2.46 35.742,-12.56 46.562,-23.52 10.996,-11.08 17.598,-23.16 21.309,-33.8 3.703,-10.67 4.375,-20.12 3.254,-26.65 -1.125,-6.6 -3.958,-9.91 -6.497,-9.76 -5.144,0.47 -9.296,10.62 -20.339,24.01 -10.606,13.2 -28.418,29.9 -49.153,32.36 -20.594,2.98 -42.265,-8.89 -57.793,-18.29 -15.722,-9.57 -26.621,-16.42 -30.742,-12.96" /><path
       id="path44"
       style="fill:#f7939c;fill-opacity:1;fill-rule:nonzero;stroke:none"
       d="m 300.211,1019.12 c 0,-13.71 -30.84,-24.807 -68.879,-24.807 -38.047,0 -68.887,11.097 -68.887,24.807 0,13.69 30.84,24.78 68.887,24.78 38.039,0 68.879,-11.09 68.879,-24.78" /><path
       id="path46"
       style="fill:#f7939c;fill-opacity:1;fill-rule:nonzero;stroke:none"
       d="m 767.113,1019.12 c 0,-13.71 -30.84,-24.807 -68.886,-24.807 -38.047,0 -68.887,11.097 -68.887,24.807 0,13.69 30.84,24.78 68.887,24.78 38.046,0 68.886,-11.09 68.886,-24.78" /><path
       id="path48"
       style="fill:#de9284;fill-opacity:1;fill-rule:nonzero;stroke:none"
       d="m 800.797,1050.41 c -10.031,-28.71 -22.942,-71.156 -3.313,-78.023 19.649,-6.856 43.692,10.851 53.711,39.563 10.039,28.7 2.246,57.55 -17.382,64.4 -19.668,6.87 -22.989,2.75 -33.016,-25.94" /><path
       id="path50"
       style="fill:#c79485;fill-opacity:1;fill-rule:nonzero;stroke:none"
       d="m 402.055,1576.41 c 0,0 -117.039,-27.59 -165.059,-195.24 l 39.66,7.99 c 0,0 39.285,126.23 125.399,187.25" /><path
       id="path52"
       style="fill:#c79485;fill-opacity:1;fill-rule:nonzero;stroke:none"
       d="m 567.406,1574.08 c 0,0 -50.281,-10.45 -83.75,-143.75 l 32.922,5.43 c 0,0 11.25,93.32 50.828,138.32" /><path
       id="path54"
       style="fill:#abc2e8;fill-opacity:1;fill-rule:nonzero;stroke:none"
       d="m 15.5352,9.92188 c 0,0 5,236.66012 22.5,355.82812 17.5,119.172 63.3318,172.5 63.3318,172.5 0,0 183.961,78.961 253.961,91.461 L 342.66,588.012 c 0,0 -200.742,-51.364 -238.793,-98.93 C 64.082,439.34 44.7031,9.92188 44.7031,9.92188 H 15.5352" /><path
       id="path56"
       style="fill:#abc2e8;fill-opacity:1;fill-rule:nonzero;stroke:none"
       d="m 566.996,630.332 c 0,0 238.32,-85.844 247.5,-90.844 5.156,-2.816 15.352,-13.578 26.992,-35.547 -0.222,0.84 -3.875,-21.679 -4.394,-21.812 -12.578,14.949 -28.406,29.051 -46.766,35.703 -29.738,10.758 -211.777,76.547 -211.777,76.547 l -11.555,35.953" /><path
       id="path66"
       style="fill:#c2d0d6;fill-opacity:1;fill-rule:nonzero;stroke:none"
       d="m 442.379,486.039 -10.078,50.902 -58.086,-68.222 68.164,17.32" /><path
       id="path68"
       style="fill:#c2d0d6;fill-opacity:1;fill-rule:nonzero;stroke:none"
       d="m 483.922,486.039 10.078,50.902 58.086,-68.222 -68.164,17.32" /><path
       id="path74"
       style="fill:none;stroke:#231f20;stroke-width:14;stroke-linecap:round;stroke-linejoin:round;stroke-miterlimit:10;stroke-dasharray:none;stroke-opacity:1"
       d="m 680.824,1575.33 c 0,0 23.332,-114.99 -203.34,-148.32 0,0 33.34,113.32 60,133.32 0,0 -116.66,-148.32 -306.66,-183.32 0,0 33.332,143.33 146.66,195" /><path
       id="path76"
       style="fill:none;stroke:#231f20;stroke-width:14;stroke-linecap:round;stroke-linejoin:round;stroke-miterlimit:10;stroke-dasharray:none;stroke-opacity:1"
       d="m 456.156,1033.9 c 0,0 -42.5,-16.67 -38.328,-36.67 4.168,-20 19.168,-42.5 19.168,-42.5" /><path
       id="path78"
       style="fill:none;stroke:#231f20;stroke-width:14;stroke-linecap:round;stroke-linejoin:round;stroke-miterlimit:10;stroke-dasharray:none;stroke-opacity:1"
       d="m 435.328,1111.4 c 0,0 12.488,-56.67 9.168,-81.67" /><path
       id="path80"
       style="fill:none;stroke:#231f20;stroke-width:14;stroke-linecap:round;stroke-linejoin:round;stroke-miterlimit:10;stroke-dasharray:none;stroke-opacity:1"
       d="m 149.078,922.641 c -106.2499,-5 -153.74988,141.589 -116.2499,194.089 27.0508,37.88 81.6919,13.53 91.8989,-7.23" /><path
       id="path82"
       style="fill:none;stroke:#231f20;stroke-width:14;stroke-linecap:round;stroke-linejoin:round;stroke-miterlimit:10;stroke-dasharray:none;stroke-opacity:1"
       d="m 129.121,1043.9 c 0,0 -35.5897,72.81 -75.9218,38.67" /><path
       id="path84"
       style="fill:none;stroke:#231f20;stroke-width:14;stroke-linecap:round;stroke-linejoin:round;stroke-miterlimit:10;stroke-dasharray:none;stroke-opacity:1"
       d="m 774.078,922.641 c 106.25,-5 153.75,141.589 116.25,194.089 -27.051,37.88 -81.691,13.53 -91.906,-7.23" /><path
       id="path86"
       style="fill:none;stroke:#231f20;stroke-width:14;stroke-linecap:round;stroke-linejoin:round;stroke-miterlimit:10;stroke-dasharray:none;stroke-opacity:1"
       d="m 794.027,1043.9 c 0,0 35.598,72.81 75.93,38.67" /><path
       id="path88"
       style="fill:none;stroke:#231f20;stroke-width:14;stroke-linecap:round;stroke-linejoin:round;stroke-miterlimit:10;stroke-dasharray:none;stroke-opacity:1"
       d="m 664.379,1514.01 c 0,0 -0.301,-78.94 106.992,-206.63 7.375,-8.77 24.277,-43.95 25.527,-74.71 4.239,-103.85 4.903,-330.272 -70.32,-411.279 -68.566,-73.832 -135,-110 -193.75,-127.5 -70,-24.172 -142.5,0 -142.5,0 -58.75,17.5 -125.187,53.668 -193.75,127.5 -69.023,74.336 -74.14,269.539 -71.25,383.109 0,0 6.25,213.07 133.192,244.58" /><path
       id="path90"
       style="fill:none;stroke:#231f20;stroke-width:14;stroke-linecap:round;stroke-linejoin:round;stroke-miterlimit:10;stroke-dasharray:none;stroke-opacity:1"
       d="m 53.7344,1254.61 c -13.8125,-27.65 -25.9063,-50.11 -25.9063,-50.11 -77.5,302.08 86.2499,356.82 86.2499,356.82 0,0 -64.8241,20 -63.0389,83.75 0,0 89.2889,-21.25 187.6169,36.25 91.016,53.23 220.157,89.63 350.84,64.69 117.91,-22.5 140.832,-106.09 140.832,-106.09 0,0 117.098,-16.81 161.25,-142.91 47.5,-135.69 7.5,-266.94 7.5,-266.94 0,0 -10.82,33.52 -24.269,69.47" /><path
       id="path92"
       style="fill:none;stroke:#231f20;stroke-width:14;stroke-linecap:round;stroke-linejoin:round;stroke-miterlimit:10;stroke-dasharray:none;stroke-opacity:1"
       d="m 44.7266,1236.81 c 0,0 -4.0078,-34.2 17.2422,-93.79" /><path
       id="path94"
       style="fill:none;stroke:#231f20;stroke-width:14;stroke-linecap:round;stroke-linejoin:round;stroke-miterlimit:10;stroke-dasharray:none;stroke-opacity:1"
       d="m 886.879,1266.13 c 0,0 -2.606,-53.52 -32.82,-124.55" /><path
       id="path96"
       style="fill:#231f20;fill-opacity:1;fill-rule:nonzero;stroke:none"
       d="m 365.863,1291.25 c -4.121,-3.46 -15.019,3.39 -30.742,12.96 -15.527,9.4 -37.195,21.27 -57.793,18.29 -20.73,-2.46 -38.543,-19.16 -49.148,-32.36 -11.047,-13.39 -15.2,-23.54 -20.36,-24.01 -2.531,-0.15 -5.359,3.16 -6.48,9.76 -1.125,6.53 -0.445,15.98 3.254,26.65 3.711,10.64 10.312,22.72 21.308,33.8 10.821,10.96 27.032,21.06 46.563,23.52 19.531,2.62 37.773,-3.06 50.859,-10.63 13.34,-7.61 22.746,-16.86 29.512,-25.11 13.398,-16.75 16.855,-29.71 13.027,-32.87" /><path
       id="path98"
       style="fill:#231f20;fill-opacity:1;fill-rule:nonzero;stroke:none"
       d="m 557.289,1291.25 c -3.828,3.16 -0.371,16.12 13.027,32.87 6.77,8.25 16.172,17.5 29.512,25.11 13.086,7.57 31.328,13.25 50.86,10.63 19.531,-2.46 35.742,-12.56 46.562,-23.52 10.996,-11.08 17.598,-23.16 21.309,-33.8 3.703,-10.67 4.375,-20.12 3.254,-26.65 -1.125,-6.6 -3.958,-9.91 -6.497,-9.76 -5.144,0.47 -9.296,10.62 -20.339,24.01 -10.606,13.2 -28.418,29.9 -49.153,32.36 -20.594,2.98 -42.265,-8.89 -57.793,-18.29 -15.722,-9.57 -26.621,-16.42 -30.742,-12.96" /><path
       id="path100"
       style="fill:none;stroke:#231f20;stroke-width:14;stroke-linecap:round;stroke-linejoin:round;stroke-miterlimit:10;stroke-dasharray:none;stroke-opacity:1"
       d="M 391.734,665.059 C 374.164,655.219 349.867,633.328 343.941,586.32 336.461,527.012 327.594,361.039 428.305,7" /><path
       id="path102"
       style="fill:none;stroke:#231f20;stroke-width:14;stroke-linecap:round;stroke-linejoin:round;stroke-miterlimit:10;stroke-dasharray:none;stroke-opacity:1"
       d="M 527.68,666.832 C 545.355,657.969 572.523,636.41 578.844,586.32 586.324,527.012 595.191,361.039 494.477,7" /><path
       id="path104"
       style="fill:none;stroke:#231f20;stroke-width:12;stroke-linecap:round;stroke-linejoin:round;stroke-miterlimit:10;stroke-dasharray:none;stroke-opacity:1"
       d="m 343.629,631.512 -121.172,-88.832 48.914,-87.5 -76.25,-64.602 c 0,0 121.496,-259.348 206.992,-373.7186" /><path
       id="path106"
       style="fill:none;stroke:#231f20;stroke-width:14;stroke-linecap:round;stroke-linejoin:round;stroke-miterlimit:10;stroke-dasharray:none;stroke-opacity:1"
       d="m 525.934,691.891 c 0,0 0.808,-36.262 3.25,-53.371 0,0 -21.629,-47.2 -67.95,-60.95 -46.316,13.75 -69.746,60.539 -69.746,60.539 1.223,19.973 1.633,53.782 1.633,53.782" /><path
       id="path108"
       style="fill:none;stroke:#231f20;stroke-width:14;stroke-linecap:round;stroke-linejoin:round;stroke-miterlimit:10;stroke-dasharray:none;stroke-opacity:1"
       d="M 564.234,635.301 C 617.965,613.898 777.555,550.602 805.328,542.57 861.578,526.32 903.031,359.191 903.031,7.42188" /><path
       id="path110"
       style="fill:none;stroke:#231f20;stroke-width:12;stroke-linecap:round;stroke-linejoin:round;stroke-miterlimit:10;stroke-dasharray:none;stroke-opacity:1"
       d="m 589.203,625 119.16,-82.32 -48.914,-87.5 76.25,-64.602 c 0,0 -136.515,-275.387 -216.672,-377.9882" /><path
       id="path112"
       style="fill:none;stroke:#231f20;stroke-width:12;stroke-linecap:round;stroke-linejoin:round;stroke-miterlimit:10;stroke-dasharray:none;stroke-opacity:1"
       d="M 431.176,533.031 442.379,480.07 398.57,135.34" /><path
       id="path114"
       style="fill:none;stroke:#231f20;stroke-width:12;stroke-linecap:round;stroke-linejoin:round;stroke-miterlimit:10;stroke-dasharray:none;stroke-opacity:1"
       d="M 491.605,533.031 480.406,480.07 525.172,138.672" /><path
       id="path116"
       style="fill:none;stroke:#231f20;stroke-width:12;stroke-linecap:round;stroke-linejoin:round;stroke-miterlimit:10;stroke-dasharray:none;stroke-opacity:1"
       d="M 841.156,503.672 755.328,7" /><path
       id="path118"
       style="fill:none;stroke:#231f20;stroke-width:10;stroke-linecap:round;stroke-linejoin:round;stroke-miterlimit:10;stroke-dasharray:none;stroke-opacity:1"
       d="m 856.012,327.512 c 0,0 -18.301,-103.821 -73.867,-155.633" /><path
       id="path120"
       style="fill:none;stroke:#231f20;stroke-width:14;stroke-linecap:round;stroke-linejoin:round;stroke-miterlimit:10;stroke-dasharray:none;stroke-opacity:1"
       d="M 355.23,635.301 C 301.5,613.898 141.91,550.602 114.137,542.57 57.8867,526.32 16.4297,359.191 16.4297,7.42188" /><path
       id="path122"
       style="fill:none;stroke:#231f20;stroke-width:12;stroke-linecap:round;stroke-linejoin:round;stroke-miterlimit:10;stroke-dasharray:none;stroke-opacity:1"
       d="M 78.3047,503.672 164.137,7" /><path
       id="path124"
       style="fill:none;stroke:#231f20;stroke-width:10;stroke-linecap:round;stroke-linejoin:round;stroke-miterlimit:10;stroke-dasharray:none;stroke-opacity:1"
       d="m 59.5938,327.512 c 0,0 18.3007,-103.821 73.8672,-155.633" /><path
       id="path126"
       style="fill:none;stroke:#231f20;stroke-width:12;stroke-linecap:round;stroke-linejoin:round;stroke-miterlimit:10;stroke-dasharray:none;stroke-opacity:1"
       d="M 578.844,586.32 C 574.527,525.07 552.027,458.199 552.027,458.199 L 461.391,577.57 370.758,458.199 c 0,0 -22.5,66.871 -26.817,128.121" /><path
       id="path196"
       style="fill:#ed5d84;fill-opacity:1;fill-rule:nonzero;stroke:none"
       d="m 462.836,749.578 c -69.168,0 -129.168,165.008 -129.168,165.008 26.668,-12.5 85.828,-21.66 128.328,-21.66 h -0.828 c 42.5,0 101.668,9.16 128.328,21.66 0,0 -60,-165.008 -129.16,-165.008 h 2.5" /><path
       id="path198"
       style="fill:#d54851;fill-opacity:1;fill-rule:nonzero;stroke:none"
       d="m 365.961,843.578 c 26.172,14.465 57.852,22.969 92.031,22.969 36.621,0 70.293,-9.832 97.473,-26.219 20.957,38.328 34.031,74.258 34.031,74.258 -26.57,-12.461 -85.449,-21.594 -127.91,-21.652 -42.469,0.058 -101.336,9.191 -127.918,21.652 0,0 12.363,-33.926 32.293,-71.008" /><path
       id="path200"
       style="fill:none;stroke:#231f20;stroke-width:18;stroke-linecap:round;stroke-linejoin:round;stroke-miterlimit:10;stroke-dasharray:none;stroke-opacity:1"
       d="m 382.836,1118.53 c -3.094,38.35 -27.508,100 -60.84,100 -29.961,0 -59.258,-42.42 -77.578,-104.27" /><path
       id="path202"
       style="fill:none;stroke:#231f20;stroke-width:14;stroke-linecap:round;stroke-linejoin:round;stroke-miterlimit:10;stroke-dasharray:none;stroke-opacity:1"
       d="m 250.121,1139.07 -22.312,9.8" /><path
       id="path204"
       style="fill:none;stroke:#231f20;stroke-width:18;stroke-linecap:round;stroke-linejoin:round;stroke-miterlimit:10;stroke-dasharray:none;stroke-opacity:1"
       d="m 540.336,1118.53 c 3.098,38.35 27.512,100 60.84,100 29.961,0 59.258,-42.42 77.578,-104.27" /><path
       id="path206"
       style="fill:none;stroke:#231f20;stroke-width:14;stroke-linecap:round;stroke-linejoin:round;stroke-miterlimit:10;stroke-dasharray:none;stroke-opacity:1"
       d="m 673.051,1139.07 22.316,9.8" /><path
       id="path208"
       style="fill:none;stroke:#231f20;stroke-width:14;stroke-linecap:round;stroke-linejoin:round;stroke-miterlimit:10;stroke-dasharray:none;stroke-opacity:1"
       d="m 462.836,749.578 c -69.168,0 -129.168,165.008 -129.168,165.008 26.668,-12.5 85.828,-21.66 128.328,-21.66 h -0.828 c 42.5,0 101.668,9.16 128.328,21.66 0,0 -60,-165.008 -129.16,-165.008 z" /></g></svg>