<?xml version="1.0" encoding="UTF-8" standalone="no"?>
<svg
   xmlns:dc="http://purl.org/dc/elements/1.1/"
   xmlns:cc="http://creativecommons.org/ns#"
   xmlns:rdf="http://www.w3.org/1999/02/22-rdf-syntax-ns#"
   xmlns:svg="http://www.w3.org/2000/svg"
   xmlns="http://www.w3.org/2000/svg"
   viewBox="0 0 416.97531 728.39235"
   height="776.95184"
   width="444.77365"
   xml:space="preserve"
   version="1.1"
   id="svg2"><title
     id="title7771">Business mand and woman - laughing</title><metadata
     id="metadata8"><rdf:RDF><cc:Work
         rdf:about=""><dc:format>image/svg+xml</dc:format><dc:type
           rdf:resource="http://purl.org/dc/dcmitype/StillImage" /><dc:title>Business mand and woman - laughing</dc:title><cc:license
           rdf:resource="http://creativecommons.org/publicdomain/zero/1.0/" /><dc:subject><rdf:Bag><rdf:li>man</rdf:li><rdf:li>woman</rdf:li><rdf:li>male</rdf:li><rdf:li>female</rdf:li><rdf:li>work</rdf:li><rdf:li>office</rdf:li><rdf:li>laughing</rdf:li><rdf:li>laugh</rdf:li><rdf:li>fun</rdf:li><rdf:li>suit</rdf:li><rdf:li>tie</rdf:li><rdf:li>publicdomainq.net</rdf:li></rdf:Bag></dc:subject><dc:description>This image was adapted from a picture posted to publicdomainq.net. All of the images on these sites are in the public domain i.e. CC0. This site is only in Japanese but can be easily navigated with Google Translate.</dc:description></cc:Work><cc:License
         rdf:about="http://creativecommons.org/publicdomain/zero/1.0/"><cc:permits
           rdf:resource="http://creativecommons.org/ns#Reproduction" /><cc:permits
           rdf:resource="http://creativecommons.org/ns#Distribution" /><cc:permits
           rdf:resource="http://creativecommons.org/ns#DerivativeWorks" /></cc:License></rdf:RDF></metadata><defs
     id="defs6" /><g
     transform="matrix(0.45424854,0,0,-0.45424854,-476.489,726.88568)"
     id="g12"><path
       id="path14"
       style="fill:#f89d8f;fill-opacity:1;fill-rule:nonzero;stroke:none"
       d="M 1848.04,9.10156 C 1878.01,324.102 1856.88,469.559 1801.87,485 c -27.17,7.621 -186.02,65.91 -238.56,86.238 l -113.6,0.653 C 1397.16,551.57 1234.99,492.621 1207.83,485 1152.82,469.559 1131.68,324.102 1158.33,9.10156 h 689.71" /><path
       id="path16"
       style="fill:#fcd0b4;fill-opacity:1;fill-rule:nonzero;stroke:none"
       d="m 1459.61,594.199 -4.75,-50.929 c 0,0 28.75,-39.168 54.16,-39.168 37.5,0 52.95,51.468 52.95,51.468 l -2.18,40.731" /><path
       id="path58"
       style="fill:#fbc6c0;fill-opacity:1;fill-rule:nonzero;stroke:none"
       d="m 1160.54,9.10156 c 0,0 -23.17,224.42944 -10,344.16044 9.17,83.34 43.32,122.488 43.32,122.488 0,0 190.01,83.34 260.01,95.84 l -4.16,-38.328 c 0,0 -220.12,-62.614 -243.34,-94.16 -55.83,-75.84 -23.33,-429.17231 -23.33,-429.17231 l -22.5,-0.82813" /><path
       id="path60"
       style="fill:#fbc6c0;fill-opacity:1;fill-rule:nonzero;stroke:none"
       d="m 1561.17,572 c 0,0 238.32,-85.84 247.5,-90.84 5.15,-2.82 21.9,-13.441 33.54,-35.41 -0.22,0.84 5.52,-31.539 5,-31.66 -12.58,14.941 -29.14,36.68 -47.5,43.332 -29.73,10.758 -226.99,78.629 -226.99,78.629 L 1561.17,572" /><path
       id="path62"
       style="fill:#da907b;fill-opacity:1;fill-rule:nonzero;stroke:none"
       d="m 1459.54,633.691 h 100.25 l 0.84,-48.781 c 0,0 -12.33,-45.109 -108.05,-41.289 l 3.75,32.367 3.21,57.703" /><path
       id="path64"
       style="fill:#ffffff;fill-opacity:1;fill-rule:nonzero;stroke:none"
       d="m 1508.19,24.9414 c 72.77,290.4566 63.71,457.8476 57.23,512.9106 l -3.45,17.718 c 0,0 -15.45,-51.468 -52.95,-51.468 -25.41,0 -54.16,39.168 -54.16,39.168 l -3.48,-7.93 c -6.66,-57.961 -14.74,-224.828 56.81,-510.3986" /><path
       id="path70"
       style="fill:#c2d0d6;fill-opacity:1;fill-rule:nonzero;stroke:none"
       d="m 1468.39,454.32 c 0,0 35.98,47.7 41.97,47.969 5.98,0.27 33.46,-47.969 33.46,-47.969 0,0 -28.07,27.11 -75.43,0" /><path
       id="path72"
       style="fill:#f68b9a;fill-opacity:1;fill-rule:nonzero;stroke:none"
       d="m 1311.07,889.027 c 0,-15.535 -26.21,-28.144 -58.55,-28.144 -32.33,0 -58.55,12.609 -58.55,28.144 0,15.547 26.22,28.157 58.55,28.157 32.34,0 58.55,-12.61 58.55,-28.157" /><path
       id="path128"
       style="fill:none;stroke:#231f20;stroke-width:14;stroke-linecap:round;stroke-linejoin:round;stroke-miterlimit:10;stroke-dasharray:none;stroke-opacity:1"
       d="M 1453.46,573.25 C 1400.91,552.922 1234.99,492.621 1207.83,485 1152.82,469.559 1131.68,324.102 1160,14.1016" /><path
       id="path130"
       style="fill:none;stroke:#231f20;stroke-width:12;stroke-linecap:round;stroke-linejoin:round;stroke-miterlimit:10;stroke-dasharray:none;stroke-opacity:1"
       d="m 1214.85,399.102 72.5,-385.4028" /><path
       id="path132"
       style="fill:none;stroke:#231f20;stroke-width:10;stroke-linecap:round;stroke-linejoin:round;stroke-miterlimit:10;stroke-dasharray:none;stroke-opacity:1"
       d="m 1189.67,284.449 c 0,0 17.4,-98.64 70.18,-147.847" /><path
       id="path134"
       style="fill:none;stroke:#231f20;stroke-width:14;stroke-linecap:round;stroke-linejoin:round;stroke-miterlimit:10;stroke-dasharray:none;stroke-opacity:1"
       d="M 1563.31,571.238 C 1615.85,550.91 1774.7,492.621 1801.87,485 1856.88,469.559 1878.01,324.102 1849.7,14.1016" /><path
       id="path136"
       style="fill:none;stroke:#231f20;stroke-width:12;stroke-linecap:round;stroke-linejoin:round;stroke-miterlimit:10;stroke-dasharray:none;stroke-opacity:1"
       d="M 1794.85,399.102 1722.35,13.6992" /><path
       id="path138"
       style="fill:none;stroke:#231f20;stroke-width:10;stroke-linecap:round;stroke-linejoin:round;stroke-miterlimit:10;stroke-dasharray:none;stroke-opacity:1"
       d="m 1820.02,284.449 c 0,0 -17.39,-98.64 -70.17,-147.847" /><path
       id="path140"
       style="fill:#85483c;fill-opacity:1;fill-rule:nonzero;stroke:none"
       d="m 1609.19,610.762 c 168.75,-19.59 199.59,71.25 199.59,71.25 l 21.66,-86.66 c 58.33,48.339 72.06,257.515 72.06,257.515 l 22.93,187.193 c 29.58,423.75 -192.49,444.79 -192.49,444.79 -46.87,105 -389.37,180 -561.62,-70.84 -108.84,-158.52 -88.9,-380.08 -88.9,-380.08 l 55.06,-191.063 c 0,0 42.2,-155.855 2.58,-229.187 0,0 73.72,14.992 82.05,38.332 0,0 23.31,-48.332 173.31,-38.332" /><path
       id="path142"
       style="fill:#e7b39d;fill-opacity:1;fill-rule:nonzero;stroke:none"
       d="m 1732.94,1484.85 c -46.87,105 -389.37,180 -561.62,-70.84 -108.84,-158.52 -88.9,-380.08 -88.9,-380.08 l 34.27,8.42 c 0,0 -19.02,297.26 155.41,425.84 199.69,147.19 384.43,53.06 456.67,18.32 1.67,0 4.17,-1.66 4.17,-1.66" /><path
       id="path144"
       style="fill:#fcd0b4;fill-opacity:1;fill-rule:nonzero;stroke:none"
       d="m 1169.45,1016.74 c 0,0 -20.2,39.18 -58.2,27.31 -79.24,-24.77 -53.83,-196.554 77.12,-211.37" /><path
       id="path146"
       style="fill:#fcd0b4;fill-opacity:1;fill-rule:nonzero;stroke:none"
       d="m 1845.11,1016.08 c 0,0 20.2,39.19 58.2,27.31 79.24,-24.76 58.19,-196.55 -74.82,-211.374" /><path
       id="path148"
       style="fill:#fcd0b4;fill-opacity:1;fill-rule:nonzero;stroke:none"
       d="m 1841.02,1057.36 c -9.49,-22.47 -19.13,-36.15 -19.13,-36.15 -31.45,241.66 -291.45,348.64 -291.45,348.64 136.97,-120.42 138.13,-187.71 138.13,-187.71 -231.25,-12.5 -346.93,152.24 -346.93,152.24 0,0 -1.22,-28.63 -16.29,-72.37 -17.8,-51.6 -55.01,-124.2 -132.2,-195.62 -0.13,-1.09 -0.19,-1.71 -0.19,-1.71 -3.92,-65.164 -2.89,-178.426 27.48,-269.325 C 1254.19,634.469 1425.7,598 1507.11,598 c 81.42,0 252.92,36.469 306.67,197.355 28.73,86.008 41.29,193.262 28.08,258.375 -0.24,1.22 -0.59,2.43 -0.84,3.63" /><path
       id="path150"
       style="fill:#f68b9a;fill-opacity:1;fill-rule:nonzero;stroke:none"
       d="m 1311.07,889.027 c 0,-15.535 -26.21,-28.144 -58.55,-28.144 -32.33,0 -58.55,12.609 -58.55,28.144 0,15.547 26.22,28.157 58.55,28.157 32.34,0 58.55,-12.61 58.55,-28.157" /><path
       id="path152"
       style="fill:#f68b9a;fill-opacity:1;fill-rule:nonzero;stroke:none"
       d="m 1820.82,889.027 c 0,-15.535 -26.23,-28.144 -58.56,-28.144 -32.34,0 -58.55,12.609 -58.55,28.144 0,15.547 26.21,28.157 58.55,28.157 32.33,0 58.56,-12.61 58.56,-28.157" /><path
       id="path154"
       style="fill:#da907b;fill-opacity:1;fill-rule:nonzero;stroke:none"
       d="m 1178.78,886.879 -5.84,63.203 c 0,0 -16.42,39.199 -41.66,45.254 -32.5,7.814 -33.16,-44.559 -10.84,-74.121 34.16,-45.274 58.34,-34.336 58.34,-34.336" /><path
       id="path156"
       style="fill:#da907b;fill-opacity:1;fill-rule:nonzero;stroke:none"
       d="m 1840.44,886.879 5.84,63.203 c 0,0 16.43,39.199 41.66,45.254 32.5,7.814 33.17,-44.559 10.84,-74.121 -34.16,-45.274 -58.34,-34.336 -58.34,-34.336" /><path
       id="path158"
       style="fill:#e7b39d;fill-opacity:1;fill-rule:nonzero;stroke:none"
       d="m 1210.32,1431.51 c 109.16,-36.64 181.65,-37.05 222.28,-31.47 27.3,3.75 12.91,13.52 0.48,15.69 -127.91,22.42 -166.07,71.54 -166.07,71.54 l -56.69,-55.76" /><path
       id="path160"
       style="fill:none;stroke:#231f20;stroke-width:14;stroke-linecap:round;stroke-linejoin:round;stroke-miterlimit:10;stroke-dasharray:none;stroke-opacity:1"
       d="m 1407.94,1152.87 c -26.25,20 -92.5,30 -128.75,-13.75" /><path
       id="path162"
       style="fill:none;stroke:#231f20;stroke-width:14;stroke-linecap:round;stroke-linejoin:round;stroke-miterlimit:10;stroke-dasharray:none;stroke-opacity:1"
       d="m 1169.45,1016.74 c 0,0 -20.2,39.18 -58.2,27.31 -79.24,-24.77 -53.83,-196.554 77.12,-211.37" /><path
       id="path164"
       style="fill:none;stroke:#231f20;stroke-width:14;stroke-linecap:round;stroke-linejoin:round;stroke-miterlimit:10;stroke-dasharray:none;stroke-opacity:1"
       d="m 1112.67,997.738 c 0,0 26.13,17.812 58.19,-52.246" /><path
       id="path166"
       style="fill:none;stroke:#231f20;stroke-width:14;stroke-linecap:round;stroke-linejoin:round;stroke-miterlimit:10;stroke-dasharray:none;stroke-opacity:1"
       d="m 1172.96,1064.68 c -3.92,-65.164 -2.89,-178.426 27.48,-269.325 C 1254.19,634.469 1425.7,598 1507.11,598 c 81.42,0 252.92,36.469 306.67,197.355 28.73,86.008 31.22,192.012 28.08,258.375" /><path
       id="path168"
       style="fill:none;stroke:#231f20;stroke-width:14;stroke-linecap:round;stroke-linejoin:round;stroke-miterlimit:10;stroke-dasharray:none;stroke-opacity:1"
       d="m 1604.19,1152.87 c 26.25,20 92.5,30 128.75,-13.75" /><path
       id="path170"
       style="fill:none;stroke:#231f20;stroke-width:14;stroke-linecap:round;stroke-linejoin:round;stroke-miterlimit:10;stroke-dasharray:none;stroke-opacity:1"
       d="m 1845.11,1016.08 c 0,0 20.2,39.19 58.2,27.31 79.24,-24.76 58.19,-196.55 -74.82,-211.374" /><path
       id="path172"
       style="fill:none;stroke:#231f20;stroke-width:14;stroke-linecap:round;stroke-linejoin:round;stroke-miterlimit:10;stroke-dasharray:none;stroke-opacity:1"
       d="m 1901.13,997.074 c 0,0 -26.12,17.816 -58.19,-52.246" /><path
       id="path174"
       style="fill:none;stroke:#231f20;stroke-width:14;stroke-linecap:round;stroke-linejoin:round;stroke-miterlimit:10;stroke-dasharray:none;stroke-opacity:1"
       d="m 1507.11,842.867 v 20" /><path
       id="path176"
       style="fill:none;stroke:#231f20;stroke-width:14;stroke-linecap:round;stroke-linejoin:round;stroke-miterlimit:10;stroke-dasharray:none;stroke-opacity:1"
       d="m 1833.78,1236.2 c 63.54,-108.33 -11.89,-214.99 -11.89,-214.99 -31.45,241.66 -291.45,348.64 -291.45,348.64 136.97,-120.42 138.13,-187.71 138.13,-187.71 -231.25,-12.5 -346.93,152.24 -346.93,152.24 0,0 -5.92,-140.04 -154.73,-273.79 0,0 -21.47,93.93 9.78,163.95" /><path
       id="path178"
       style="fill:none;stroke:#231f20;stroke-width:14;stroke-linecap:round;stroke-linejoin:round;stroke-miterlimit:10;stroke-dasharray:none;stroke-opacity:1"
       d="m 1084.6,1026.33 c 0,0 -22.12,229.16 86.72,387.68 172.25,250.84 514.75,175.84 561.62,70.84 0,0 221.36,-26.87 191.78,-450.62" /><path
       id="path180"
       style="fill:none;stroke:#231f20;stroke-width:14;stroke-linecap:round;stroke-linejoin:round;stroke-miterlimit:10;stroke-dasharray:none;stroke-opacity:1"
       d="m 1137.48,842.867 c 0,0 42.2,-155.855 2.58,-229.187 0,0 73.72,14.992 82.05,38.332 0,0 23.31,-48.332 173.31,-38.332" /><path
       id="path182"
       style="fill:none;stroke:#231f20;stroke-width:14;stroke-linecap:round;stroke-linejoin:round;stroke-miterlimit:10;stroke-dasharray:none;stroke-opacity:1"
       d="m 1902.5,852.867 c 0,0 -13.73,-209.176 -72.06,-257.515 l -21.66,86.66 c 0,0 -30.84,-90.84 -199.59,-71.25" /><path
       id="path184"
       style="fill:none;stroke:#231f20;stroke-width:12;stroke-linecap:round;stroke-linejoin:round;stroke-miterlimit:10;stroke-dasharray:none;stroke-opacity:1"
       d="m 1590.2,559.332 83.82,-96.891 -30.78,-28.711 34.73,-38.421 -145.8,-358.7074" /><path
       id="path186"
       style="fill:none;stroke:#231f20;stroke-width:12;stroke-linecap:round;stroke-linejoin:round;stroke-miterlimit:10;stroke-dasharray:none;stroke-opacity:1"
       d="m 1429.84,562.441 -84.16,-100 30.78,-28.711 -34.74,-38.421 145.8,-358.7074" /><path
       id="path188"
       style="fill:none;stroke:#231f20;stroke-width:14;stroke-linecap:round;stroke-linejoin:round;stroke-miterlimit:10;stroke-dasharray:none;stroke-opacity:1"
       d="m 1459.61,594.199 -4.75,-50.929 c 0,0 28.75,-39.168 54.16,-39.168 37.5,0 52.95,51.468 52.95,51.468 l -2.18,40.731" /><path
       id="path190"
       style="fill:none;stroke:#231f20;stroke-width:14;stroke-linecap:round;stroke-linejoin:round;stroke-miterlimit:10;stroke-dasharray:none;stroke-opacity:1"
       d="m 1454.86,558.672 c 0,0 -37.5,-171.231 53.33,-533.7306" /><path
       id="path192"
       style="fill:none;stroke:#231f20;stroke-width:14;stroke-linecap:round;stroke-linejoin:round;stroke-miterlimit:10;stroke-dasharray:none;stroke-opacity:1"
       d="m 1562.36,558.262 c 0,0 36.66,-170.821 -54.17,-533.3206" /><path
       id="path194"
       style="fill:none;stroke:#231f20;stroke-width:12;stroke-linecap:round;stroke-linejoin:round;stroke-miterlimit:10;stroke-dasharray:none;stroke-opacity:1"
       d="m 1449.85,431.602 59.17,72.5 59.58,-80" /><path
       id="path210"
       style="fill:none;stroke:#231f20;stroke-width:18;stroke-linecap:round;stroke-linejoin:round;stroke-miterlimit:10;stroke-dasharray:none;stroke-opacity:1"
       d="m 1433.58,965.621 c -8.51,36.059 -29.84,77.489 -57.17,77.489 -28.27,0 -55.94,-37.76 -74.37,-93.973" /><path
       id="path212"
       style="fill:none;stroke:#231f20;stroke-width:14;stroke-linecap:round;stroke-linejoin:round;stroke-miterlimit:10;stroke-dasharray:none;stroke-opacity:1"
       d="m 1302.81,973.656 -34.16,15" /><path
       id="path214"
       style="fill:none;stroke:#231f20;stroke-width:18;stroke-linecap:round;stroke-linejoin:round;stroke-miterlimit:10;stroke-dasharray:none;stroke-opacity:1"
       d="m 1583.74,965.621 c 8.5,36.059 29.84,77.489 57.16,77.489 28.27,0 55.94,-37.76 74.38,-93.973" /><path
       id="path216"
       style="fill:none;stroke:#231f20;stroke-width:14;stroke-linecap:round;stroke-linejoin:round;stroke-miterlimit:10;stroke-dasharray:none;stroke-opacity:1"
       d="m 1714.51,973.656 34.16,15" /><path
       id="path218"
       style="fill:#ed5f70;fill-opacity:1;fill-rule:nonzero;stroke:none"
       d="m 1512.41,659.93 c -94.96,0 -101.74,122.496 -102.87,149.996 0,0 100.97,-35 201.97,0 -1.13,-27.5 -7.91,-149.996 -102.87,-149.996" /><path
       id="path220"
       style="fill:#d54851;fill-opacity:1;fill-rule:nonzero;stroke:none"
       d="m 1504.65,768.258 c 35.73,0 67.64,-18.449 88.99,-47.43 15.13,35.024 17.28,74.832 17.87,89.098 -101,-35 -201.97,0 -201.97,0 0.52,-12.957 2.32,-47.02 14.01,-79.426 20.96,23.328 49.53,37.758 81.1,37.758" /><path
       id="path222"
       style="fill:none;stroke:#231f20;stroke-width:14;stroke-linecap:round;stroke-linejoin:round;stroke-miterlimit:10;stroke-dasharray:none;stroke-opacity:1"
       d="m 1512.41,659.93 c -94.96,0 -101.74,122.496 -102.87,149.996 0,0 100.97,-35 201.97,0 -1.13,-27.5 -7.91,-149.996 -102.87,-149.996" /></g></svg>