<?xml version="1.0" encoding="UTF-8" standalone="no"?>
<svg
   xmlns:dc="http://purl.org/dc/elements/1.1/"
   xmlns:cc="http://creativecommons.org/ns#"
   xmlns:rdf="http://www.w3.org/1999/02/22-rdf-syntax-ns#"
   xmlns:svg="http://www.w3.org/2000/svg"
   xmlns="http://www.w3.org/2000/svg"
   id="svg8"
   version="1.1"
   viewBox="0 0 136.52557 112.76569"
   height="112.76569mm"
   width="136.52557mm">
  <defs
     id="defs2" />
  <metadata
     id="metadata5">
    <rdf:RDF>
      <cc:Work
         rdf:about="">
        <dc:format>image/svg+xml</dc:format>
        <dc:type
           rdf:resource="http://purl.org/dc/dcmitype/StillImage" />
        <dc:title></dc:title>
      </cc:Work>
    </rdf:RDF>
  </metadata>
  <g
     transform="translate(-1.9785259,-18.325834)"
     id="layer1">
    <rect
       y="18.825834"
       x="2.4785259"
       height="111.76569"
       width="135.52557"
       id="rect4885"
       style="opacity:1;fill:#ffffff;fill-opacity:1;stroke:#000000;stroke-width:1;stroke-linecap:butt;stroke-miterlimit:4;stroke-dasharray:none;stroke-dashoffset:0;stroke-opacity:1" />
    <path
       id="path4541"
       d="m 41.060225,51.667733 c 1.987728,0.95874 3.560218,2.679285 4.503743,4.661341 1.081813,2.207613 1.239878,4.816797 0.566415,7.16813 -0.408162,1.324502 -1.126278,2.568648 -2.198737,3.465351 -1.235304,1.068281 -2.980829,1.462891 -4.579566,1.232852 -1.477049,-0.254967 -2.735595,-1.278426 -3.415434,-2.597457 -1.196337,-2.030028 -1.086918,-4.530641 -0.526532,-6.741279 0.547785,-2.185463 1.68181,-4.363441 3.673497,-5.551079 0.573838,-0.351273 1.59627,-0.750715 2.09525,-0.580114 -0.174398,0.227619 -0.184924,0.692337 -0.554047,0.63708 -0.98056,0.115397 -1.856943,0.658591 -2.57577,1.310263 0.595758,-0.630717 -0.41624,0.425134 -0.551001,0.695058 -1.280418,1.996451 -1.902468,4.407975 -1.821622,6.773749 0.07811,1.781442 0.860956,3.610473 2.306634,4.701096 1.427551,1.008157 3.370944,0.92545 4.903426,0.208545 0.341496,-0.122117 1.018317,-0.632312 1.047442,-0.663087 -0.456195,0.484625 0.45026,-0.421599 0.539178,-0.642111 0.939168,-1.383926 1.381787,-3.05181 1.395436,-4.7152 0.111459,-3.502548 -1.901481,-7.004533 -5.011689,-8.631218 -0.502153,-0.05942 0.05142,-0.42329 0.149562,-0.657739 0.01793,-0.02469 0.0359,-0.04953 0.05381,-0.07418 z"
       style="opacity:1;fill:#4d4d4d;fill-opacity:1;stroke:#000000;stroke-width:0.065;stroke-linecap:butt;stroke-miterlimit:4;stroke-dasharray:none;stroke-dashoffset:0;stroke-opacity:1" />
    <path
       id="path4543"
       d="m 37.901373,67.698215 c -1.202646,1.801658 -1.459379,4.030806 -1.68184,6.136295 -0.396789,4.118404 -0.35166,8.264905 -0.05299,12.388142 0.167538,2.446664 0.373646,4.890488 0.550362,7.336489 -0.211202,0.03778 -0.708521,0.611071 -0.658086,0.15916 -0.39138,-6.087346 -1.06418,-12.192352 -0.573407,-18.295363 0.167792,-2.376557 0.326216,-4.842664 1.381565,-7.018949 0.142155,-0.471418 0.581335,-0.568051 0.994708,-0.692474 l 0.0397,-0.01329 z"
       style="opacity:1;fill:#4d4d4d;fill-opacity:1;stroke:#000000;stroke-width:0.065;stroke-linecap:butt;stroke-miterlimit:4;stroke-dasharray:none;stroke-dashoffset:0;stroke-opacity:1" />
    <path
       id="path4549"
       d="m 37.354555,93.388063 c 0.955389,1.765197 1.104616,3.826469 1.433086,5.77546 0.354726,2.333747 0.58663,4.701967 1.318856,6.957607 0.222315,1.37487 -0.720668,2.57529 -1.272871,3.75719 -1.194825,2.10145 -2.50177,4.14071 -3.554442,6.32163 -0.524017,1.07335 -1.131458,2.12298 -1.496336,3.26166 0.675386,0.59929 1.926527,0.23191 2.837,0.36805 2.876078,-0.011 5.927256,0.36415 8.598275,-0.95198 0.624242,-0.36668 0.860675,-0.63491 0.621733,-0.43284 0.776092,-0.82733 0.578383,-2.22824 -0.366384,-2.83054 -1.334359,-0.86627 -2.990236,-0.23154 -4.327308,0.30029 -2.477688,1.01678 -4.593469,2.69358 -6.593021,4.44068 0.0484,-0.54162 0.286596,-0.96815 0.777069,-1.23786 2.327005,-1.98896 4.955407,-3.79041 7.975653,-4.49704 1.318003,-0.32592 2.915237,0.11016 3.509739,1.42485 0.57846,1.19776 -0.211848,2.56538 -1.252988,3.20737 -2.076728,1.27611 -4.616738,1.29288 -6.979358,1.26241 -1.617777,-0.0483 -3.247024,0.0302 -4.855607,-0.15694 -1.32633,-0.40925 -0.09929,-1.81568 0.178668,-2.62167 1.209614,-2.50512 2.571349,-4.93166 4.028719,-7.29977 0.580372,-1.20644 1.475363,-2.36456 1.548646,-3.74241 -0.349342,-1.36441 -0.742663,-2.72311 -0.8955,-4.13042 -0.468106,-2.731547 -0.595072,-5.556898 -1.56196,-8.177112 -0.516212,-0.528709 -0.0171,-0.657901 0.328331,-0.998615 z"
       style="opacity:1;fill:#4d4d4d;fill-opacity:1;stroke:#000000;stroke-width:0.065;stroke-linecap:butt;stroke-miterlimit:4;stroke-dasharray:none;stroke-dashoffset:0;stroke-opacity:1" />
    <path
       id="path4551"
       d="m 36.985491,93.437125 c 0.160313,1.727648 -0.06937,3.4656 -0.0806,5.196817 -0.07638,2.203038 0.04492,4.454008 -0.637526,6.583608 -1.193333,4.01889 -2.4263,8.14359 -4.9364,11.56842 -0.296723,0.54354 -1.398076,1.72112 -0.433029,2.01026 0.796992,0.0396 1.591803,-0.10517 2.390336,-0.0775 -0.205926,0.3605 -0.312264,0.87978 -0.856762,0.68571 -0.828046,-0.0406 -1.820516,0.35335 -2.510134,-0.25734 -0.38982,-0.84289 0.406608,-1.68876 0.830147,-2.37906 2.287602,-3.1234 3.490397,-6.85472 4.599234,-10.51912 0.621513,-1.82086 0.876449,-3.73969 0.844933,-5.65945 0.01666,-2.138391 0.210249,-4.276977 0.158934,-6.41414 -0.1948,-0.452597 0.377059,-0.505984 0.630869,-0.738165 z"
       style="opacity:1;fill:#4d4d4d;fill-opacity:1;stroke:#000000;stroke-width:0.065;stroke-linecap:butt;stroke-miterlimit:4;stroke-dasharray:none;stroke-dashoffset:0;stroke-opacity:1" />
    <path
       id="path4553"
       d="m 31.68568,116.50739 c 0.793364,-0.23164 1.541589,-0.59984 2.34974,-0.78425 0.980677,-0.24902 2.008328,-0.45636 3.017407,-0.25414 0.536315,0.11788 1.092184,0.28436 1.515147,0.64973 0.322913,0.30588 0.290945,0.80391 0.202121,1.20302 -0.238425,0.0976 -0.476851,0.19512 -0.715277,0.29268 0.103592,-0.31889 0.220431,-0.79696 -0.118805,-1.01583 -0.857316,-0.53728 -1.929269,-0.62459 -2.908565,-0.45447 -0.929645,0.15187 -1.840486,0.41147 -2.711425,0.77023 -0.309297,0.11234 -0.61839,0.22803 -0.937279,0.31072 0.102313,-0.23923 0.204624,-0.47846 0.306936,-0.71769 z"
       style="opacity:1;fill:#4d4d4d;fill-opacity:1;stroke:#000000;stroke-width:0.065;stroke-linecap:butt;stroke-miterlimit:4;stroke-dasharray:none;stroke-dashoffset:0;stroke-opacity:1" />
    <path
       id="path4555"
       d="m 36.326339,68.191376 c -0.232786,0.146166 -1.044316,0.968561 -0.429553,0.367452 -1.601811,1.699868 -2.836164,3.730674 -3.628139,5.927824 -1.546086,3.945203 -2.304829,8.143656 -2.761657,12.341103 -0.191447,0.03827 -0.626331,0.419826 -0.649795,0.221294 0.49408,-4.384669 1.306878,-8.770337 2.965456,-12.877504 0.924955,-2.450025 2.417881,-4.693897 4.356227,-6.457243 0.349146,-0.373875 0.396261,-0.239035 0.24507,0.134047 -0.03253,0.114342 -0.06507,0.228686 -0.09761,0.343027 z"
       style="opacity:1;fill:#4d4d4d;fill-opacity:1;stroke:#000000;stroke-width:0.065;stroke-linecap:butt;stroke-miterlimit:4;stroke-dasharray:none;stroke-dashoffset:0;stroke-opacity:1" />
    <path
       id="path4557"
       d="m 30.0863,86.724613 c 0.295969,-0.0672 0.626249,-0.04692 0.87876,0.136282 0.478345,0.311789 0.77698,0.854679 0.85298,1.413902 0.08455,0.555943 0.03932,1.139247 -0.162637,1.665846 -0.185483,0.445936 -0.541471,0.795661 -0.91955,1.08359 -0.283137,0.213584 -0.644672,0.286206 -0.993305,0.274049 0.119772,-0.228415 0.239545,-0.45683 0.359317,-0.685251 0.347658,0.0037 0.677113,-0.175463 0.904373,-0.431332 -0.148749,0.151543 -0.308207,0.297258 -0.444718,0.458173 0.111955,-0.09752 0.226103,-0.190123 0.287619,-0.314598 0.210716,-0.305354 0.295168,-0.681509 0.327768,-1.046537 0.03681,-0.528476 -0.01604,-1.107628 -0.370816,-1.528619 -0.174325,-0.223956 -0.44962,-0.426211 -0.74857,-0.365224 -0.09172,-0.01202 -0.322952,0.141428 -0.210642,-0.0533 0.07981,-0.202323 0.159631,-0.404639 0.239421,-0.606968 z"
       style="opacity:1;fill:#4d4d4d;fill-opacity:1;stroke:#000000;stroke-width:0.065;stroke-linecap:butt;stroke-miterlimit:4;stroke-dasharray:none;stroke-dashoffset:0;stroke-opacity:1" />
    <path
       id="path4559"
       d="m 28.507073,86.898132 c -0.243756,0.380608 -0.568615,0.704007 -0.822634,1.079082 -0.538604,0.738889 -1.032356,1.605068 -0.982317,2.549849 0.01,0.507818 0.485407,0.81451 0.925555,0.939758 0.389633,0.120285 0.878449,0.194643 1.063427,0.614763 0.144391,0.331827 0.138725,0.779481 0.497567,0.975633 0.420067,0.235622 0.924759,0.09863 1.365256,0.0037 0.464324,-0.133632 0.827475,-0.489626 1.154712,-0.813332 -0.116525,0.127861 -0.508916,0.513455 -0.188728,0.171164 0.364923,-0.374609 0.6635,-0.876625 1.175673,-1.060013 0.145668,-0.03159 0.618785,0.200746 0.314314,0.138736 -0.106239,0.111797 -0.37783,0.302349 -0.381466,0.372143 0.17461,-0.38438 0.115817,-0.833076 0.07769,-1.243346 -0.0908,-0.736576 -0.667297,-1.253049 -1.145776,-1.764351 -0.151879,-0.213406 -0.458118,-0.439876 -0.5145,-0.649338 0.175512,-0.168036 0.351024,-0.336066 0.526536,-0.504101 0.405028,0.491466 0.858946,0.939377 1.269694,1.425286 0.377888,0.464858 0.569955,1.05348 0.576842,1.649475 -0.02031,0.321333 0.0555,0.711521 -0.12477,0.985956 -0.209217,0.132945 -0.383597,0.53591 -0.660358,0.351675 -0.169298,-0.263112 -0.637337,0.453107 -0.33708,0.07544 0.129144,-0.130792 0.515453,-0.523747 0.180336,-0.181492 -0.550894,0.582488 -1.058872,1.257097 -1.797617,1.612109 -0.502139,0.198323 -1.071979,0.302827 -1.606254,0.189086 -0.526559,-0.117569 -0.89302,-0.605557 -0.952533,-1.128065 -0.04982,-0.425235 -0.542091,-0.452272 -0.862628,-0.569289 -0.545169,-0.161792 -1.104202,-0.538069 -1.209207,-1.136069 -0.148335,-0.970383 0.294301,-1.918451 0.825136,-2.704109 0.286574,-0.395365 0.564883,-0.813019 0.904992,-1.159058 0.242713,-0.07371 0.485426,-0.147433 0.728139,-0.221146 z"
       style="opacity:1;fill:#4d4d4d;fill-opacity:1;stroke:#000000;stroke-width:0.065;stroke-linecap:butt;stroke-miterlimit:4;stroke-dasharray:none;stroke-dashoffset:0;stroke-opacity:1" />
    <path
       id="path4561"
       d="m 38.092988,68.368917 c -0.184523,0.832341 -0.340069,1.673439 -0.606313,2.486479 -0.491473,1.81629 -0.92936,3.668186 -1.024829,5.55381 -0.02061,1.245014 0.02847,2.535583 0.502488,3.701952 0.272374,0.731841 0.96342,1.192976 1.691161,1.392766 1.541082,0.464024 3.17046,0.493079 4.764273,0.389814 -0.114509,0.221404 -0.229019,0.442814 -0.343529,0.664218 -1.789029,0.08938 -3.647363,0.05257 -5.334036,-0.617946 -0.734132,-0.296995 -1.264754,-0.940788 -1.515649,-1.680892 -0.553649,-1.797509 -0.514293,-3.727491 -0.215209,-5.568709 0.265309,-1.638551 0.683564,-3.246268 1.135443,-4.841577 0.169498,-0.381904 0.02789,-0.978145 0.344171,-1.231145 0.200676,-0.08292 0.401356,-0.165848 0.602029,-0.24877 z"
       style="opacity:1;fill:#4d4d4d;fill-opacity:1;stroke:#000000;stroke-width:0.065;stroke-linecap:butt;stroke-miterlimit:4;stroke-dasharray:none;stroke-dashoffset:0;stroke-opacity:1" />
    <path
       id="path4563"
       d="m 43.419768,81.893738 c 0.310282,-0.511664 0.59982,-1.046924 1.042727,-1.461708 0.444579,-0.492729 1.072455,-0.965396 1.776881,-0.812222 1.268922,0.155695 2.543657,0.252238 3.817951,0.347125 0.688592,0.07192 1.398813,0.102725 2.05393,0.341904 0.603921,0.306649 0.712168,1.223019 0.21164,1.67515 -0.322393,0.465619 -0.874502,0.642481 -1.416891,0.659036 -0.937124,0.08854 -1.885973,-0.07958 -2.81804,0.03925 -0.211852,0.0368 -0.385615,0.199464 -0.107036,-0.02846 0.09637,-0.09709 0.36926,-0.390047 0.143637,-0.109576 0.22045,0.464208 0.756744,1.002424 0.344009,1.522595 -0.419088,0.425432 -0.746599,0.912286 -0.808053,1.517462 -0.445684,1.172233 -1.910831,1.686565 -3.051069,1.279019 -0.726494,-0.216626 -1.273825,-0.776488 -1.676619,-1.395943 -0.486996,-0.641972 -0.889586,-1.470129 -0.633527,-2.288675 0.166719,-0.549968 0.466969,-1.195467 1.126559,-1.198387 0.37306,-0.113894 -0.287682,0.424647 -0.3095,0.655779 -0.294967,0.527065 -0.300138,1.18983 0.0089,1.712019 0.293448,0.543381 0.673847,1.04839 1.122676,1.471902 0.791963,0.644321 2.059619,0.678264 2.827921,-0.02312 -0.09853,0.123807 -0.509151,0.514847 -0.2063,0.184897 0.280223,-0.484296 0.180149,-1.150753 0.671824,-1.519878 0.48552,-0.31358 0.472124,-0.895504 0.04865,-1.246124 -0.327536,-0.411135 -0.07601,-0.983399 0.393734,-1.132187 0.530007,-0.188712 1.104182,-0.07745 1.653776,-0.117642 0.763902,0.0149 1.566675,0.112073 2.289295,-0.199268 0.267143,-0.229305 -0.546598,0.582924 -0.167041,0.186602 0.434723,-0.376339 0.136555,-1.149741 -0.448524,-1.116638 -1.520345,-0.290027 -3.077588,-0.263248 -4.609569,-0.463785 -0.569407,-0.03312 -1.214578,-0.268369 -1.692373,0.174598 -0.208483,0.15442 -0.309804,0.255268 -0.05829,0.0075 0.156353,-0.14574 -0.309343,0.292535 -0.402581,0.354883 -0.385904,0.276404 -0.520982,0.813387 -0.975731,1.026603 -0.03851,0.03901 -0.182732,0.05263 -0.152941,-0.04275 z"
       style="opacity:1;fill:#4d4d4d;fill-opacity:1;stroke:#000000;stroke-width:0.065;stroke-linecap:butt;stroke-miterlimit:4;stroke-dasharray:none;stroke-dashoffset:0;stroke-opacity:1" />
    <path
       id="path4569"
       d="m 43.345739,60.483542 c -0.120645,0.249432 -0.30117,0.489548 -0.561671,0.602901 -0.14918,0.06734 -0.325491,0.05474 -0.47366,-0.0082 -0.11772,-0.0592 -0.21701,-0.158341 -0.275376,-0.276491 -0.05419,-0.130579 -0.07292,-0.281754 -0.02201,-0.41659 0.08643,-0.238376 0.294439,-0.410213 0.516769,-0.518332 0.106355,-0.05887 0.235654,-0.07354 0.350735,-0.0322 0.136423,0.0466 0.238937,0.161084 0.311664,0.281521 -0.202787,0.162228 -0.405574,0.324459 -0.608361,0.486687 -0.01516,-0.05372 -0.07811,-0.141722 -0.134662,-0.07937 -0.02791,0.03013 -0.105584,0.07926 -0.09409,0.108356 0.118816,-0.08349 0.221553,-0.188017 0.323797,-0.290686 0.03994,-0.04621 0.09123,-0.08803 0.112438,-0.146556 -0.04425,-0.01458 -0.127807,0.02872 -0.129434,0.08855 -0.01311,0.05507 0.0075,0.114263 0.05849,0.142032 0.0675,0.03139 0.157089,0.0079 0.205235,-0.04794 0.01907,-0.01958 0.05653,-0.09506 0.0023,-0.04968 -0.135526,0.116276 -0.258337,0.247382 -0.372676,0.384394 -0.02614,0.02317 -0.03254,0.0624 0.0068,0.0265 0.0379,-0.03927 0.09449,-0.04224 0.143258,-0.06049 0.213445,-0.06477 0.427095,-0.129825 0.640411,-0.194424 z"
       style="opacity:1;fill:#4d4d4d;fill-opacity:1;stroke:#000000;stroke-width:0.065;stroke-linecap:butt;stroke-miterlimit:4;stroke-dasharray:none;stroke-dashoffset:0;stroke-opacity:1" />
    <path
       id="path4571"
       d="m 44.560984,61.225162 c -0.117714,-0.136817 -0.170939,-0.332717 -0.125146,-0.508719 0.04668,-0.152766 0.184516,-0.247085 0.297585,-0.349274 0.06439,-0.056 0.12739,-0.1137 0.186738,-0.175058 0.08371,-0.03538 0.174273,-0.0029 0.259035,0.01018 0.121844,0.03665 0.223982,0.129843 0.282595,0.241423 0.03866,0.08385 0.06059,0.179029 0.05066,0.271308 -0.02288,0.174946 -0.134706,0.321598 -0.261383,0.437504 -0.101937,0.09561 -0.21201,0.182324 -0.310689,0.281452 -0.105826,0.03638 -0.224802,0.0288 -0.325433,-0.01999 0.147296,-0.214367 0.294592,-0.428735 0.441888,-0.643103 0.0073,-0.02939 0.06945,-0.08112 0.04794,-0.08993 -0.143511,0.145641 -0.290564,0.287907 -0.4305,0.436998 0.04922,-0.03369 0.09797,-0.07209 0.137803,-0.116981 0.0052,-0.01325 0.06609,-0.110609 -2.3e-5,-0.127081 -0.04907,-0.0048 -0.0694,0.02743 -0.05817,0.0727 0.02466,-0.01436 0.08412,-0.08523 0.122496,-0.121029 0.107743,-0.110739 0.217749,-0.219739 0.319557,-0.335908 -0.04059,0.0029 -0.126674,0.03561 -0.0966,0.08478 -0.01947,0.04723 0.02251,0.09966 0.02859,0.128392 -0.188971,0.174094 -0.377981,0.348275 -0.566927,0.522321 z"
       style="opacity:1;fill:#4d4d4d;fill-opacity:1;stroke:#000000;stroke-width:0.065;stroke-linecap:butt;stroke-miterlimit:4;stroke-dasharray:none;stroke-dashoffset:0;stroke-opacity:1" />
    <path
       id="path4573"
       d="m 37.74565,62.215718 c 0.719312,0.01347 1.43145,0.137812 2.141419,0.244982 1.653565,0.283721 3.274129,0.762112 4.951351,0.902079 0.223196,-0.03487 0.151222,0.08208 0.0641,0.206897 -0.09268,0.158327 -0.185371,0.316649 -0.278057,0.474976 -1.389248,-0.1146 -2.742881,-0.459277 -4.102553,-0.746962 -0.920465,-0.190144 -1.852137,-0.343518 -2.791331,-0.396058 -0.20466,0.0064 -0.451881,0.04984 -0.258399,-0.179254 0.09112,-0.168757 0.182507,-0.33854 0.273471,-0.50666 z"
       style="opacity:1;fill:#4d4d4d;fill-opacity:1;stroke:#000000;stroke-width:0.065;stroke-linecap:butt;stroke-miterlimit:4;stroke-dasharray:none;stroke-dashoffset:0;stroke-opacity:1" />
    <path
       id="path4577"
       d="m 38.886891,62.336651 c -0.143828,0.373164 -0.148945,0.833451 0.12899,1.148616 0.466303,0.565496 1.159302,0.875863 1.849001,1.074329 0.737625,0.234433 1.539223,0.374937 2.30597,0.206076 0.519172,-0.145115 0.996302,-0.439284 1.36172,-0.835298 -0.118275,0.114822 -0.34115,0.340313 -0.392312,0.390698 0.122946,-0.09674 0.172721,-0.282332 0.347037,-0.293685 0.202905,-0.06034 0.405809,-0.120685 0.608713,-0.181027 -0.256934,0.466843 -0.675541,0.821876 -1.096812,1.136471 -0.502154,0.341216 -1.099486,0.545708 -1.709986,0.534751 -0.920666,-0.0015 -1.820838,-0.265438 -2.660822,-0.625328 -0.545363,-0.265464 -1.077872,-0.638306 -1.377082,-1.179564 -0.18729,-0.330963 -0.169657,-0.729109 -0.09112,-1.08934 0.242233,-0.09557 0.484467,-0.191133 0.7267,-0.286699 z"
       style="opacity:1;fill:#4d4d4d;fill-opacity:1;stroke:#000000;stroke-width:0.065;stroke-linecap:butt;stroke-miterlimit:4;stroke-dasharray:none;stroke-dashoffset:0;stroke-opacity:1" />
    <path
       id="path4581"
       d="m 87.45695,64.136661 c -1.428013,0.358187 -3.149346,-0.139082 -3.875042,-1.494562 -1.284787,-2.04767 -1.157453,-4.636853 -0.553712,-6.888053 0.590855,-2.217322 2.032208,-4.260987 4.1132,-5.299752 1.277193,-0.750799 2.928232,-0.941824 4.262889,-0.220927 2.66096,1.301801 3.866688,4.671104 3.094569,7.453123 -0.783185,3.1911 -3.182705,5.866796 -6.138605,7.234965 -0.729573,-0.130375 0.495721,-0.897717 0.84058,-1.045557 0.739447,-0.436727 1.504581,-0.865895 2.095215,-1.501636 -0.31437,0.323771 0.396428,-0.422872 0.471868,-0.522018 1.700265,-1.995688 2.757143,-4.777593 2.068449,-7.391607 -0.503387,-1.905897 -2.024896,-3.656502 -4.036005,-3.973202 -1.478624,-0.242512 -2.863728,0.584515 -3.994666,1.443373 -0.257514,0.226331 -0.288966,0.202352 -0.350152,0.291674 -0.901736,0.96694 -1.412673,2.229408 -1.806789,3.474545 -0.573584,2.013449 -0.606507,4.283996 0.334733,6.192211 0.565076,1.069606 1.769179,1.898811 3.014762,1.642187 0.601931,-0.180706 0.957162,0.04363 0.458706,0.605236 z"
       style="opacity:1;fill:#4d4d4d;fill-opacity:1;stroke:#000000;stroke-width:0.065;stroke-linecap:butt;stroke-miterlimit:4;stroke-dasharray:none;stroke-dashoffset:0;stroke-opacity:1" />
    <path
       id="path4583"
       d="m 85.224986,55.737952 c -0.178493,0.60256 -0.19271,1.361951 0.301993,1.823071 0.411921,0.435731 1.068415,0.403831 1.604321,0.272534 1.247944,-0.299896 2.418546,-0.930562 3.355561,-1.80721 -0.05397,0.06686 -0.290984,0.290138 -0.112639,0.08378 0.393766,-0.410264 0.574859,-0.967443 0.637781,-1.522068 0.153051,-0.1538 0.514237,-0.473969 0.691129,-0.243455 -0.07349,0.713007 -0.344074,1.428383 -0.872455,1.930731 -1.136845,1.203383 -2.670718,2.03451 -4.305424,2.304886 -0.688682,0.09377 -1.450602,-0.182427 -1.808586,-0.803124 -0.246217,-0.385209 -0.350661,-0.864363 -0.263408,-1.315186 -0.09247,-0.2727 0.146629,-0.503392 0.386553,-0.580665 0.126279,-0.05336 0.258048,-0.09217 0.385174,-0.143298 z"
       style="opacity:1;fill:#4d4d4d;fill-opacity:1;stroke:#000000;stroke-width:0.065;stroke-linecap:butt;stroke-miterlimit:4;stroke-dasharray:none;stroke-dashoffset:0;stroke-opacity:1" />
    <path
       d="m 90.19822,53.824882 c 0.0886,-0.01066 0.177462,-0.01821 0.266469,-0.02458 0.147316,3.71e-4 0.291676,0.02921 0.434172,0.06408 0.15859,0.04094 0.305453,0.112871 0.456357,0.174528 0.157008,0.06232 0.306459,0.139907 0.45085,0.22726 0.14014,0.08754 0.266916,0.191733 0.385388,0.306436 0.06133,0.05998 0.113485,0.127855 0.165189,0.195978 0,0 -0.576552,0.517772 -0.576552,0.517772 v 0 c -0.04128,-0.05667 -0.0829,-0.113126 -0.133198,-0.16236 -0.1025,-0.099 -0.213231,-0.187794 -0.335567,-0.2615 -0.134627,-0.07773 -0.273767,-0.145848 -0.418833,-0.202145 -0.134835,-0.05655 -0.269155,-0.116473 -0.413626,-0.144527 -0.118975,-0.02114 -0.239519,-0.03879 -0.360156,-0.01906 -0.08331,0.0094 -0.16671,0.01992 -0.248811,0.03713 0,0 0.328318,-0.709005 0.328318,-0.709005 z"
       id="path4585"
       style="opacity:1;fill:#4d4d4d;fill-opacity:1;stroke:#000000;stroke-width:0.065;stroke-linecap:butt;stroke-miterlimit:4;stroke-dasharray:none;stroke-dashoffset:0;stroke-opacity:1" />
    <path
       id="path4593"
       d="m 85.648953,53.526215 c -0.198727,-0.301858 -0.141,-0.716812 0.08837,-0.985651 0.321049,-0.455161 0.891965,-0.799856 1.461917,-0.671231 0.196046,0.0097 0.310868,0.206782 0.100501,0.311414 -0.179363,0.142524 -0.284869,0.498898 -0.550117,0.3497 -0.214514,-0.253718 -0.760387,0.101352 -0.555932,0.521519 -0.133768,0.193816 -0.366945,0.282964 -0.522885,0.45603 -0.0073,0.006 -0.01454,0.01222 -0.02183,0.01821 z"
       style="opacity:1;fill:#4d4d4d;fill-opacity:1;stroke:#000000;stroke-width:0.065;stroke-linecap:butt;stroke-miterlimit:4;stroke-dasharray:none;stroke-dashoffset:0;stroke-opacity:1" />
    <path
       id="path4597"
       d="m 88.364524,52.499239 c 0.159859,-0.259993 0.383468,-0.477943 0.609469,-0.680277 0.316156,-0.256151 0.837704,-0.369722 1.152234,-0.04991 0.4048,0.399874 0.332077,1.113984 -0.07765,1.484405 -0.114705,0.07332 -0.300926,0.353472 -0.391312,0.303971 0.06072,-0.258187 0.15456,-0.520571 0.159411,-0.784794 -0.0587,-0.254297 -0.238709,-0.571827 -0.543156,-0.533467 -0.296676,0.04908 -0.575491,0.173569 -0.867039,0.247229 l -0.04195,0.01284 z"
       style="opacity:1;fill:#4d4d4d;fill-opacity:1;stroke:#000000;stroke-width:0.065;stroke-linecap:butt;stroke-miterlimit:4;stroke-dasharray:none;stroke-dashoffset:0;stroke-opacity:1" />
    <path
       id="path4603"
       d="m 88.390566,65.729988 c -0.985192,2.515567 -2.419951,4.857826 -3.07255,7.501672 -1.036589,3.769776 -0.842082,7.803948 0.125819,11.565272 0.02662,0.423855 -0.828454,0.861266 -0.724015,0.08367 -0.762975,-3.132619 -0.994251,-6.431293 -0.472077,-9.6212 0.476351,-2.984592 1.800815,-5.72736 3.090827,-8.427993 0.186374,-0.613321 0.391062,-0.962103 1.051996,-1.101425 z"
       style="opacity:1;fill:#4d4d4d;fill-opacity:1;stroke:#000000;stroke-width:0.065;stroke-linecap:butt;stroke-miterlimit:4;stroke-dasharray:none;stroke-dashoffset:0;stroke-opacity:1" />
    <path
       id="path4605"
       d="m 85.708133,85.382475 c 0.72466,1.420281 1.294453,2.911841 1.957295,4.36068 0.202596,0.46714 0.406119,0.933919 0.61816,1.39687 -0.176615,0.145445 -0.351317,0.35243 -0.596252,0.361133 -0.266849,-0.08805 -0.19772,-0.451622 -0.354544,-0.646934 -0.663534,-1.50092 -1.286093,-3.020123 -1.984416,-4.505519 -0.140754,-0.158032 -0.271302,-0.424186 -0.09434,-0.605367 0.129776,-0.144826 0.302263,-0.241994 0.454094,-0.360863 z"
       style="opacity:1;fill:#4d4d4d;fill-opacity:1;stroke:#000000;stroke-width:0.065;stroke-linecap:butt;stroke-miterlimit:4;stroke-dasharray:none;stroke-dashoffset:0;stroke-opacity:1" />
    <path
       id="path4607"
       d="m 88.211178,91.930405 c 2.647166,5.163168 4.593985,10.641455 6.899464,15.957615 1.650505,4.0398 3.19421,8.12306 4.638678,12.24098 0.27946,0.71493 -1.01568,0.83976 -0.380046,0.11493 -1.009504,-0.0117 -0.706897,-1.67397 -1.06831,-2.39835 -0.645656,-1.31352 -1.080044,-2.74105 -1.623402,-4.11258 -2.63033,-6.94282 -5.505326,-13.792673 -8.60742,-20.537812 -0.387185,-0.349842 -0.494752,-1.106573 0.141036,-1.264783 z"
       style="opacity:1;fill:#4d4d4d;fill-opacity:1;stroke:#000000;stroke-width:0.065;stroke-linecap:butt;stroke-miterlimit:4;stroke-dasharray:none;stroke-dashoffset:0;stroke-opacity:1" />
    <path
       id="path4609"
       d="m 86.143532,88.775557 c 0.388701,4.924689 -1.076596,9.741493 -1.331633,14.640063 -0.60996,5.91935 -1.231003,11.84304 -2.222187,17.71315 -1.513247,2.70194 -5.263494,2.37638 -7.811307,1.62276 -2.733394,-0.61467 -4.549332,-4.70251 -1.798932,-6.43647 1.222988,-1.1329 5.403255,-0.83344 4.99502,0.77354 -1.800478,-0.89696 -5.555422,-1.48194 -5.718882,1.46029 0.05888,2.96185 3.373237,4.0572 5.85579,4.06099 2.862134,0.13271 4.468976,-1.03988 4.232309,-3.91634 1.273839,-8.65684 1.974235,-17.38638 3.13043,-26.056625 0.47829,-1.115301 -0.637861,-3.316419 0.669392,-3.861358 z"
       style="opacity:1;fill:#4d4d4d;fill-opacity:1;stroke:#000000;stroke-width:0.065;stroke-linecap:butt;stroke-miterlimit:4;stroke-dasharray:none;stroke-dashoffset:0;stroke-opacity:1" />
    <path
       id="path4611"
       d="m 99.800693,120.40181 c -2.87221,1.80473 -6.385735,2.05938 -9.691578,1.91452 -1.224441,-0.0198 -2.591936,-0.71494 -2.823206,-2.01953 -0.16671,-1.69134 1.043489,-3.25314 2.528983,-3.94111 1.668967,-0.79694 3.591161,-0.48261 5.340658,-0.17268 0.641847,-0.01 1.760844,0.52085 0.641019,0.85852 -0.74731,0.1073 -1.389194,-0.44311 -2.133229,-0.44591 -1.467548,-0.0932 -3.074169,-0.20475 -4.364451,0.64553 -1.15162,0.67675 -1.813064,2.34076 -0.989694,3.50783 0.569333,0.8247 1.652867,0.80593 2.543771,0.92583 1.837345,0.12147 3.683669,-0.11652 5.485073,-0.46224 1.306443,-0.30011 2.587354,-0.7845 3.689701,-1.55855 -0.07567,0.24926 -0.151417,0.49851 -0.227047,0.74779 z"
       style="opacity:1;fill:#4d4d4d;fill-opacity:1;stroke:#000000;stroke-width:0.065;stroke-linecap:butt;stroke-miterlimit:4;stroke-dasharray:none;stroke-dashoffset:0;stroke-opacity:1" />
    <path
       id="path4613"
       d="m 77.804741,116.3428 c 0.98551,0.38932 1.881112,0.98685 2.70447,1.64697 1.10208,0.94885 1.958883,2.20395 2.351091,3.61084 -0.287904,0.2047 -0.746132,0.66404 -0.769304,-0.006 -0.592131,-1.76822 -1.963857,-3.19068 -3.584837,-4.06863 -0.292321,-0.26919 -0.987154,-0.37975 -1.085956,-0.61902 0.128175,-0.18827 0.256355,-0.37654 0.384536,-0.56481 z"
       style="opacity:1;fill:#4d4d4d;fill-opacity:1;stroke:#000000;stroke-width:0.065;stroke-linecap:butt;stroke-miterlimit:4;stroke-dasharray:none;stroke-dashoffset:0;stroke-opacity:1" />
    <path
       id="path4615"
       d="m 96.30736,116.38742 c 0.670551,0.53584 1.368617,1.0391 2.104452,1.4818 -0.164963,0.19532 -0.329931,0.39064 -0.494893,0.58596 -0.721704,-0.43609 -1.403252,-0.93436 -2.074669,-1.4434 -0.130934,-0.0901 0.130898,-0.21464 0.17745,-0.3121 0.09589,-0.10409 0.191783,-0.20818 0.28766,-0.31226 z"
       style="opacity:1;fill:#4d4d4d;fill-opacity:1;stroke:#000000;stroke-width:0.065;stroke-linecap:butt;stroke-miterlimit:4;stroke-dasharray:none;stroke-dashoffset:0;stroke-opacity:1" />
    <path
       id="path4617"
       d="m 88.668835,65.580508 c -0.0085,1.458439 0.23124,2.906318 0.411437,4.350411 0.610316,3.768249 2.688628,7.059011 4.688592,10.23248 0.661818,1.093901 1.437685,2.113052 2.134254,3.182265 0.192353,0.391948 0.566444,1.04972 -0.04655,1.201005 -0.522113,0.479794 -0.27267,-0.525881 -0.596786,-0.79314 -0.946061,-1.381775 -1.893655,-2.765727 -2.761461,-4.20006 -1.93389,-3.104669 -3.794947,-6.421738 -4.190903,-10.123504 -0.120599,-1.157981 -0.327066,-2.311953 -0.325649,-3.478754 0.229025,-0.123554 0.458025,-0.247208 0.687068,-0.370703 z"
       style="opacity:1;fill:#4d4d4d;fill-opacity:1;stroke:#000000;stroke-width:0.065;stroke-linecap:butt;stroke-miterlimit:4;stroke-dasharray:none;stroke-dashoffset:0;stroke-opacity:1" />
    <path
       id="path4619"
       d="m 88.262244,66.052389 c -1.106662,1.813206 -2.614708,3.331503 -3.841645,5.05862 -1.922016,2.490377 -3.793138,5.094128 -6.312602,7.024589 -0.567879,0.353847 -1.299611,0.816209 -1.973333,0.47106 -0.522799,-0.356963 -0.535992,-1.091116 -0.589401,-1.664613 -0.02551,-2.03878 0.03165,-4.093826 0.467065,-6.094137 0.178799,-0.527298 0.128856,-1.214495 0.580919,-1.594244 0.328631,-0.31294 0.784215,0.0177 0.369068,0.35352 -0.749776,2.559059 -0.833306,5.263634 -0.679973,7.906751 0.177242,0.670799 1.036393,0.541485 1.491554,0.257212 1.532322,-0.983319 2.678667,-2.43704 3.842646,-3.812749 1.808242,-2.214697 3.458373,-4.553929 5.28585,-6.753211 0.342019,-0.48803 0.676151,-1.135782 1.359852,-1.152798 z"
       style="opacity:1;fill:#4d4d4d;fill-opacity:1;stroke:#000000;stroke-width:0.065;stroke-linecap:butt;stroke-miterlimit:4;stroke-dasharray:none;stroke-dashoffset:0;stroke-opacity:1" />
    <path
       id="path4623"
       d="m 77.352511,68.68601 c 0.945822,0.134858 1.890896,0.281802 2.831001,0.45325 0.875565,0.182357 1.751479,0.50602 2.430445,1.104484 0.149494,0.233352 0.460528,0.357165 0.684253,0.141894 0.113522,-0.09438 0.315904,-0.355748 0.102636,-0.118163 -0.08822,0.09444 -0.376379,0.377645 -0.343253,0.35411 0.347503,-0.394353 0.390062,-0.986295 0.194458,-1.459916 -0.199744,-0.343551 -0.466422,-0.649429 -0.752376,-0.924206 -0.523751,-0.432992 -1.25566,-0.614197 -1.915355,-0.431904 -0.0816,0.0015 0.06292,-0.182796 0.07875,-0.261347 0.06437,-0.143628 0.128744,-0.287258 0.19312,-0.430886 0.921117,-0.197681 1.931529,0.177441 2.51571,0.913371 0.293247,0.347753 0.621246,0.717253 0.653213,1.19429 0.15069,0.757271 -0.275491,1.585023 -0.979107,1.900062 -0.315266,0.139049 -0.694159,0.01717 -0.898865,-0.25228 -0.52364,-0.504653 -1.219062,-0.793797 -1.913288,-0.978608 -0.974201,-0.239891 -1.974137,-0.352037 -2.9648,-0.502268 -0.150874,-0.02361 -0.424316,0.01451 -0.236998,-0.175945 0.106806,-0.175309 0.213704,-0.35064 0.320454,-0.525938 z"
       style="opacity:1;fill:#4d4d4d;fill-opacity:1;stroke:#000000;stroke-width:0.065;stroke-linecap:butt;stroke-miterlimit:4;stroke-dasharray:none;stroke-dashoffset:0;stroke-opacity:1" />
    <path
       id="path4625"
       d="m 79.910143,67.475985 c 0.175978,-0.160366 0.303576,-0.368037 0.457535,-0.549498 0.461129,-0.605407 0.936609,-1.204376 1.319084,-1.864118 0.180253,-0.318266 0.330667,-0.66734 0.361376,-1.034904 0.0211,-0.251527 -0.166765,-0.536014 -0.431382,-0.547085 -0.376905,0.02028 -0.649888,0.314247 -0.903471,0.561055 -0.179897,0.184555 0.08304,-0.08139 0.146771,-0.144938 0.07152,-0.06983 0.292309,-0.296349 0.109382,-0.106349 -0.392478,0.461227 -0.68659,0.997929 -0.951256,1.53998 -0.14988,0.373731 -0.317161,0.757851 -0.32243,1.166735 -0.01779,0.256991 0.275712,0.287558 0.446464,0.176401 0.173163,-0.05937 0.406947,-0.243114 0.515403,-0.276165 -0.06993,0.237358 -0.139846,0.47472 -0.209772,0.712077 -0.306183,0.174077 -0.670895,0.384776 -1.030388,0.249144 -0.308471,-0.102651 -0.440116,-0.458902 -0.40274,-0.760064 0.04796,-0.455553 0.221874,-0.888298 0.40848,-1.302856 0.355262,-0.695713 0.750046,-1.39459 1.346783,-1.914065 0.292069,-0.268285 0.618418,-0.55929 1.037349,-0.574951 0.501775,-0.03276 0.929593,0.450745 0.926318,0.936543 -0.0082,0.399482 -0.157345,0.784569 -0.33821,1.136001 -0.254313,0.471273 -0.570799,0.905798 -0.887782,1.336162 -0.279343,0.368559 -0.565083,0.743693 -0.844536,1.104975 -0.250995,0.05196 -0.501995,0.103998 -0.752978,0.15592 z"
       style="opacity:1;fill:#4d4d4d;fill-opacity:1;stroke:#000000;stroke-width:0.065;stroke-linecap:butt;stroke-miterlimit:4;stroke-dasharray:none;stroke-dashoffset:0;stroke-opacity:1" />
    <path
       id="path4627"
       d="m 80.274555,63.763774 c 0.09721,-0.303567 0.16971,-0.624402 0.147844,-0.944409 0.0049,-0.236065 -0.224247,-0.369107 -0.427229,-0.241092 -0.293468,0.13142 -0.545542,0.33935 -0.764521,0.572163 0.146612,-0.140371 0.28904,-0.285045 0.432664,-0.42845 -0.495444,0.548161 -0.889677,1.194814 -1.127767,1.895406 -0.08006,0.234333 -0.142361,0.542787 0.05103,0.739361 0.154812,0.148895 0.391559,0.09223 0.58003,0.05301 0.118625,0.0048 0.309617,-0.178896 0.33718,-0.148225 -0.07075,0.237014 -0.141502,0.474024 -0.21225,0.711037 -0.280919,0.144483 -0.618878,0.19257 -0.927949,0.121952 -0.349754,-0.0959 -0.590346,-0.449479 -0.586605,-0.807341 -0.01595,-0.32681 0.122569,-0.636755 0.240218,-0.93443 0.242954,-0.544564 0.552301,-1.065064 0.94708,-1.513413 0.347251,-0.375389 0.714693,-0.775519 1.213922,-0.940308 0.278048,-0.09594 0.628372,-0.02765 0.788366,0.237595 0.188969,0.294169 0.158418,0.656387 0.10542,0.984877 -0.04563,0.121452 0.0012,0.340276 -0.156265,0.377369 -0.213734,0.08828 -0.427438,0.176697 -0.641185,0.264894 z"
       style="opacity:1;fill:#4d4d4d;fill-opacity:1;stroke:#000000;stroke-width:0.065;stroke-linecap:butt;stroke-miterlimit:4;stroke-dasharray:none;stroke-dashoffset:0;stroke-opacity:1" />
    <path
       id="path4629"
       d="m 78.488264,63.002503 c -0.142833,-0.373985 -0.379396,-0.716275 -0.683278,-0.97763 -0.171157,-0.140714 -0.433805,-0.233227 -0.628747,-0.08283 -0.07622,0.03752 -0.262672,0.27383 -0.100985,0.103136 0.09611,-0.09513 0.282986,-0.282853 0.321283,-0.322008 -0.318155,0.296109 -0.408898,0.738477 -0.505001,1.143574 -0.09145,0.490922 -0.210324,1.010866 -0.04698,1.500429 0.0819,0.281951 0.338094,0.532301 0.640835,0.540263 0.239482,-0.02894 0.452732,-0.183674 0.600626,-0.368348 -0.109119,0.104531 -0.347883,0.339099 -0.364339,0.37293 0.247658,-0.05774 0.495316,-0.115491 0.742974,-0.173235 -0.285746,0.351121 -0.618032,0.723259 -1.078345,0.82681 -0.393386,0.07761 -0.787152,-0.150852 -1.016539,-0.459317 -0.282293,-0.41119 -0.327631,-0.941911 -0.259722,-1.424252 0.06767,-0.495414 0.158295,-0.993687 0.341694,-1.460504 0.08033,-0.200164 0.213391,-0.370114 0.366234,-0.519819 0.216801,-0.250799 0.488189,-0.521941 0.84499,-0.5147 0.403383,0.01059 0.740956,0.286958 0.98129,0.589745 0.203455,0.22917 0.352827,0.499839 0.482626,0.775714 -0.212857,0.150017 -0.425751,0.300011 -0.63859,0.450038 z"
       style="opacity:1;fill:#4d4d4d;fill-opacity:1;stroke:#000000;stroke-width:0.065;stroke-linecap:butt;stroke-miterlimit:4;stroke-dasharray:none;stroke-dashoffset:0;stroke-opacity:1" />
    <path
       id="path4633"
       d="m 75.986936,63.239776 c -0.116925,-0.199817 -0.245719,-0.394766 -0.392539,-0.574024 -0.07007,-0.118017 -0.116558,0.03102 -0.102494,0.06648 0.145544,-0.141773 0.291082,-0.283542 0.436626,-0.425315 -0.15058,0.105794 -0.190072,0.301898 -0.245279,0.466847 -0.174579,0.616215 -0.112203,1.288808 0.140846,1.874422 0.08806,0.192459 0.159577,0.420892 0.352183,0.534152 0.07651,0.06778 0.27692,0.0124 0.295982,0.05141 -0.113387,0.222859 -0.22678,0.445722 -0.340161,0.668581 -0.266137,-2.89e-4 -0.529975,-0.123451 -0.685658,-0.34242 -0.196585,-0.278144 -0.311082,-0.605154 -0.416245,-0.9264 -0.170641,-0.610341 -0.173144,-1.273188 0.0276,-1.876717 0.04845,-0.13849 0.08181,-0.290602 0.203787,-0.385769 0.151659,-0.165255 0.289389,-0.410349 0.541561,-0.416416 0.232999,-0.0022 0.386449,0.198121 0.50792,0.370329 0.08367,0.140573 0.210925,0.2787 0.269517,0.420129 -0.197868,0.164893 -0.39579,0.32987 -0.593615,0.494712 z"
       style="opacity:1;fill:#4d4d4d;fill-opacity:1;stroke:#000000;stroke-width:0.065;stroke-linecap:butt;stroke-miterlimit:4;stroke-dasharray:none;stroke-dashoffset:0;stroke-opacity:1" />
    <path
       id="path4635"
       d="m 76.567776,65.48754 c 0.0075,0.397324 -0.06121,0.790458 -0.07492,1.186979 -0.01417,0.405749 -0.06856,0.823857 0.05814,1.218405 0.04263,0.154676 0.132664,0.292851 0.241402,0.409183 -0.184669,0.180813 -0.369331,0.361627 -0.554,0.54244 -0.212201,-0.214324 -0.347171,-0.495467 -0.399636,-0.791324 -0.08745,-0.40043 -0.03116,-0.812279 -0.01944,-1.217265 0.0086,-0.300673 0.05453,-0.599014 0.06238,-0.89945 -0.03416,-0.08286 0.04324,-0.100752 0.0981,-0.131712 0.195991,-0.105749 0.391976,-0.211528 0.587966,-0.317256 z"
       style="opacity:1;fill:#4d4d4d;fill-opacity:1;stroke:#000000;stroke-width:0.065;stroke-linecap:butt;stroke-miterlimit:4;stroke-dasharray:none;stroke-dashoffset:0;stroke-opacity:1" />
    <path
       d="m 76.60257,68.212752 c 0.05667,0.02772 0.111296,0.06001 0.169176,0.08537 0.06415,0.03743 0.13286,0.06583 0.200278,0.09674 0.07976,0.03627 0.159632,0.07202 0.240126,0.106849 0.08828,0.03752 0.181338,0.06101 0.274001,0.08469 0.01607,0.0037 0.03208,0.0074 0.04815,0.01118 0,0 -0.42872,0.646142 -0.42872,0.646142 v 0 c -0.01748,-0.0047 -0.03502,-0.0094 -0.0525,-0.0141 -0.105089,-0.02994 -0.209276,-0.06337 -0.308869,-0.108796 -0.08211,-0.03624 -0.164373,-0.07207 -0.245861,-0.109728 -0.06807,-0.03187 -0.136834,-0.06219 -0.203191,-0.09761 -0.04514,-0.0228 -0.0934,-0.05126 -0.142569,-0.0621 0,0 0.449984,-0.638624 0.449984,-0.638624 z"
       id="path4637"
       style="opacity:1;fill:#4d4d4d;fill-opacity:1;stroke:#000000;stroke-width:0.065;stroke-linecap:butt;stroke-miterlimit:4;stroke-dasharray:none;stroke-dashoffset:0;stroke-opacity:1" />
    <path
       id="path4641"
       d="m 97.172418,85.30648 c -0.669761,0.489117 -1.213002,1.19673 -1.324985,2.062327 -0.170672,1.011766 0.469985,2.256596 1.56508,2.359266 0.365572,0.07376 0.919559,-0.392538 0.975403,-0.489203 -0.260023,0.253888 0.371269,-0.516086 0.353409,-0.775991 0.210018,-0.749641 0.138595,-1.700016 -0.467115,-2.246267 -0.474211,-0.149365 -1.554708,-0.822244 -0.597473,-1.10445 0.708652,0.108693 1.367857,0.637255 1.663987,1.291187 0.418324,1.09652 0.13995,2.433967 -0.731493,3.236394 -0.531337,0.636936 -1.509628,1.039582 -2.254638,0.517558 -1.318128,-0.781173 -1.588075,-2.737935 -0.671257,-3.926502 0.440471,-0.64329 1.041201,-1.150691 1.628719,-1.653916 -0.02582,0.246841 -0.09583,0.485903 -0.139637,0.729597 z"
       style="opacity:1;fill:#4d4d4d;fill-opacity:1;stroke:#000000;stroke-width:0.065;stroke-linecap:butt;stroke-miterlimit:4;stroke-dasharray:none;stroke-dashoffset:0;stroke-opacity:1" />
    <path
       d="m 85.344672,84.658215 c 0.02735,0.05079 0.05759,0.09995 0.08471,0.150898 0.04195,0.06919 0.07631,0.142306 0.105708,0.217565 0.02699,0.0766 0.05686,0.152156 0.08717,0.227495 0.02564,0.07401 0.05857,0.144642 0.09471,0.213964 0.02349,0.04465 0.04428,0.09055 0.06769,0.135208 0,0 -0.605796,0.487602 -0.605796,0.487602 v 0 c -0.02545,-0.04612 -0.04999,-0.09237 -0.07137,-0.14052 -0.03913,-0.07852 -0.08458,-0.154315 -0.11235,-0.238002 -0.02895,-0.07896 -0.06296,-0.155885 -0.09309,-0.234395 -0.01785,-0.06029 -0.04048,-0.118893 -0.07277,-0.173084 -0.02975,-0.0479 -0.05434,-0.09918 -0.08487,-0.146464 0,0 0.600264,-0.500267 0.600264,-0.500267 z"
       id="path4643"
       style="opacity:1;fill:#4d4d4d;fill-opacity:1;stroke:#000000;stroke-width:0.065;stroke-linecap:butt;stroke-miterlimit:4;stroke-dasharray:none;stroke-dashoffset:0;stroke-opacity:1" />
    <path
       d="m 86.220898,86.543943 c -0.0012,0.0598 -0.0012,0.11963 -0.0012,0.179451 -0.0018,0.09262 0.0018,0.185314 -0.0018,0.277857 -0.0075,0.108866 -0.01674,0.217583 -0.02263,0.326553 -0.01147,0.118924 -0.02601,0.237517 -0.03772,0.356422 -0.01214,0.124862 -0.02073,0.250018 -0.0284,0.375223 -0.0078,0.130308 -0.01337,0.260745 -0.01834,0.391194 -0.0049,0.133773 -0.0085,0.267602 -0.01178,0.401431 -0.0031,0.135981 -0.0055,0.271975 -0.0076,0.407982 -3e-4,0.02282 -6.13e-4,0.04563 -0.0012,0.06845 0,0 -0.681886,0.363716 -0.681886,0.363716 v 0 c 2.94e-4,-0.02294 6.13e-4,-0.04582 6.13e-4,-0.0687 0.0018,-0.136651 0.0037,-0.273301 0.0064,-0.409945 0.0025,-0.134877 0.0055,-0.269749 0.0099,-0.404596 0.0043,-0.132154 0.0088,-0.264296 0.01533,-0.396358 0.0064,-0.127972 0.01355,-0.255918 0.02367,-0.383656 0.0096,-0.119532 0.02018,-0.239057 0.03619,-0.357932 0.01558,-0.105485 0.01386,-0.212645 0.02527,-0.318664 0.0085,-0.08656 0.01325,-0.172526 0.0094,-0.25969 -2.95e-4,-0.05925 -3.68e-4,-0.118477 -0.0012,-0.177696 0,0 0.687608,-0.37104 0.687608,-0.37104 z"
       id="path4645"
       style="opacity:1;fill:#4d4d4d;fill-opacity:1;stroke:#000000;stroke-width:0.065;stroke-linecap:butt;stroke-miterlimit:4;stroke-dasharray:none;stroke-dashoffset:0;stroke-opacity:1" />
    <path
       d="m 87.862878,90.184645 c 0.03674,0.05257 0.06718,0.109294 0.09691,0.166183 0.0414,0.08264 0.07619,0.168343 0.114086,0.252594 0.04244,0.09457 0.07693,0.19241 0.113596,0.289303 0.0414,0.106528 0.07949,0.214086 0.112215,0.323595 0.02993,0.104891 0.06326,0.208751 0.09888,0.311832 0.03355,0.09439 0.07271,0.186621 0.111357,0.278992 0.03895,0.09921 0.07965,0.197643 0.11565,0.297964 0.03521,0.100309 0.06243,0.203108 0.0933,0.304784 0.0049,0.01785 0.01037,0.0357 0.01552,0.05355 0,0 -0.64232,0.433982 -0.64232,0.433982 v 0 c -0.0043,-0.01644 -0.0085,-0.03288 -0.01276,-0.04931 -0.02791,-0.09812 -0.05943,-0.195011 -0.08568,-0.293609 -0.0322,-0.09673 -0.0689,-0.191374 -0.106916,-0.285874 -0.03833,-0.09792 -0.08181,-0.193692 -0.12011,-0.291664 -0.03717,-0.108276 -0.07435,-0.216307 -0.10786,-0.32578 -0.02705,-0.103725 -0.05802,-0.206481 -0.100458,-0.305115 -0.03214,-0.09159 -0.06828,-0.181677 -0.101961,-0.272681 -0.03582,-0.08039 -0.07142,-0.16073 -0.1071,-0.24116 -0.02478,-0.05134 -0.04851,-0.104302 -0.0866,-0.147329 0,0 0.600257,-0.500274 0.600257,-0.500274 z"
       id="path4649"
       style="opacity:1;fill:#4d4d4d;fill-opacity:1;stroke:#000000;stroke-width:0.065;stroke-linecap:butt;stroke-miterlimit:4;stroke-dasharray:none;stroke-dashoffset:0;stroke-opacity:1" />
    <path
       id="path4651"
       d="m 47.466768,54.873071 c 0.755033,-0.968673 1.438111,-1.994971 2.006598,-3.084843 0.89792,-1.663208 1.511792,-3.461926 2.025077,-5.275709 0.235595,-0.0991 0.471191,-0.198207 0.706788,-0.297311 -0.40577,1.481291 -0.89744,2.943203 -1.523381,4.346743 -0.62561,1.353166 -1.367866,2.655685 -2.264368,3.84866 -0.092,0.203515 -0.243258,0.322441 -0.462639,0.340346 -0.162692,0.04071 -0.325384,0.08141 -0.488075,0.122114 z"
       style="opacity:1;fill:#4d4d4d;fill-opacity:1;stroke:#000000;stroke-width:0.065;stroke-linecap:butt;stroke-miterlimit:4;stroke-dasharray:none;stroke-dashoffset:0;stroke-opacity:1" />
    <path
       id="path4653"
       d="m 61.946347,30.978343 c -5.21195,0.09011 -10.476066,-0.06561 -15.628582,0.832149 -2.070847,0.353994 -2.950565,2.442352 -2.800435,4.347163 -0.01632,3.140301 -1.163052,6.602707 0.543604,9.508952 1.05282,1.780112 3.368539,1.263756 5.089151,1.265311 0.664531,0.109221 3.520354,-0.227646 2.220661,-0.850572 -1.872906,0.153842 -3.834616,0.446454 -5.681748,0.0048 -1.920617,-1.06725 -1.931686,-3.605621 -1.853384,-5.541726 0.197546,-2.178476 0.32418,-4.366877 0.54958,-6.538889 0.700072,-2.062583 3.528194,-1.697542 5.275299,-1.989964 4.137926,-0.32083 8.301687,-0.385702 12.448082,-0.310148 2.052012,0.440759 2.43862,2.841574 2.541912,4.603072 0.08839,2.917387 -0.254216,5.837326 -0.711342,8.714214 -0.662555,1.7653 -2.976562,1.403998 -4.481633,1.779413 -1.269078,-0.03245 -3.454237,0.475439 -4.228168,-0.01216 -0.617203,-0.547113 -1.4094,1.822033 -2.014677,2.540351 -1.358229,2.065797 -3.138685,3.901329 -5.406781,4.94662 -1.329851,1.600156 1.278032,-0.03753 1.866633,-0.525243 2.19409,-1.607977 3.911421,-3.799039 5.181069,-6.190312 2.397192,0.209191 4.841069,-0.05664 7.193403,-0.539339 1.756493,-0.187435 2.80325,-1.79226 2.774262,-3.465458 0.347211,-3.376216 0.996822,-6.898134 0.01639,-10.221988 -0.417265,-1.256208 -1.496841,-2.362328 -2.893305,-2.356278 z m 1.653719,14.82747 c -0.123756,0.128863 -0.07605,0.07919 0,0 z"
       style="opacity:1;fill:#4d4d4d;fill-opacity:1;stroke:#000000;stroke-width:0.065;stroke-linecap:butt;stroke-miterlimit:4;stroke-dasharray:none;stroke-dashoffset:0;stroke-opacity:1" />
    <path
       id="path4661"
       d="m 48.171206,35.895121 c -0.0093,2.002494 0.003,4.005174 -0.0083,6.007577 -0.03037,0.137616 0.05582,0.353589 -0.126449,0.39358 -0.193243,0.09895 -0.386484,0.197899 -0.579727,0.296848 0.05902,-0.805372 0.01906,-1.613684 0.03071,-2.420446 -9.2e-4,-1.302171 0.0014,-2.604361 -0.0039,-3.906521 0.229234,-0.123666 0.458442,-0.247436 0.687692,-0.371038 z"
       style="opacity:1;fill:#4d4d4d;fill-opacity:1;stroke:#000000;stroke-width:0.065;stroke-linecap:butt;stroke-miterlimit:4;stroke-dasharray:none;stroke-dashoffset:0;stroke-opacity:1" />
    <path
       id="path4663"
       d="m 47.459373,35.973974 c 0.820081,-0.144097 1.646572,0.111937 2.368478,0.490633 0.658147,0.313838 1.27727,0.765822 1.68091,1.381485 0.468008,0.692831 0.436228,1.587172 0.187317,2.352746 -0.383445,1.205063 -1.172707,2.268855 -2.176898,3.03065 -0.606022,0.473716 -1.408628,0.610195 -2.157938,0.509414 -0.631956,-0.08659 -1.252837,-0.2701 -1.827707,-0.547485 0.156926,-0.203852 0.313851,-0.407704 0.470776,-0.611557 0.835657,0.373976 1.785674,0.636023 2.700072,0.433114 0.472914,-0.112905 0.867331,-0.403963 1.222773,-0.722907 0.173565,-0.126763 -0.514812,0.499111 -0.187584,0.192013 0.681414,-0.705842 1.183653,-1.599634 1.397412,-2.559534 0.14214,-0.612793 0.04567,-1.293295 -0.365958,-1.785122 -0.455422,-0.566462 -1.100266,-0.939387 -1.76154,-1.218952 -0.582402,-0.270051 -1.247317,-0.37411 -1.878433,-0.235511 0.109438,-0.236319 0.218889,-0.472718 0.32832,-0.708987 z"
       style="opacity:1;fill:#4d4d4d;fill-opacity:1;stroke:#000000;stroke-width:0.065;stroke-linecap:butt;stroke-miterlimit:4;stroke-dasharray:none;stroke-dashoffset:0;stroke-opacity:1" />
    <path
       id="path4667"
       d="m 53.767217,36.45476 c 0.09166,1.704044 -0.281375,3.433109 0.08716,5.117605 0.08225,0.677821 0.716212,1.448048 1.436674,0.99662 0.313241,-0.181361 0.588571,-0.445752 0.500071,-0.406142 0.967637,-1.117556 1.04265,-2.721247 0.672889,-4.091003 -0.27657,-0.555209 0.947151,-1.282749 0.698565,-0.341744 0.180826,1.218109 0.388311,2.557249 -0.277723,3.674865 -0.46908,0.86753 -1.197746,1.715992 -2.182289,1.972822 -0.858329,0.0903 -1.403355,-0.759621 -1.524787,-1.508562 -0.366966,-1.549918 -0.03462,-3.144801 -0.09516,-4.713704 -0.0026,-0.436784 0.354795,-0.563403 0.684607,-0.700757 z"
       style="opacity:1;fill:#4d4d4d;fill-opacity:1;stroke:#000000;stroke-width:0.065;stroke-linecap:butt;stroke-miterlimit:4;stroke-dasharray:none;stroke-dashoffset:0;stroke-opacity:1" />
    <path
       id="path4669"
       d="m 57.965712,35.88934 c 0.401372,-1.324813 2.148297,-2.294761 3.386521,-1.45121 1.122939,0.915787 0.641646,2.737072 -0.585416,3.29356 -0.355604,0.238593 -0.868031,2.278791 -0.689807,2.58411 0.132392,0.226805 -0.357891,0.856503 -0.420921,0.427307 -0.04012,-0.273185 0.110682,-1.559932 0.03471,-1.740817 0.06582,-1.243577 1.805728,-1.738993 1.646225,-3.051725 -0.130972,-1.282666 -1.845751,-1.557656 -2.526808,-0.56173 -0.233005,0.231685 -0.500871,0.471368 -0.844504,0.500505 z"
       style="opacity:1;fill:#4d4d4d;fill-opacity:1;stroke:#000000;stroke-width:0.065;stroke-linecap:butt;stroke-miterlimit:4;stroke-dasharray:none;stroke-dashoffset:0;stroke-opacity:1" />
    <path
       id="path4671"
       d="m 60.002853,42.032761 c -0.486312,0.01538 -0.917624,0.579345 -0.681115,1.040506 0.136405,0.334187 0.516042,0.22385 0.700322,0.002 0.174152,-0.162697 0.468526,-0.296615 0.455278,-0.5733 -0.01335,-0.241919 -0.228762,-0.465601 -0.474485,-0.469249 z"
       style="opacity:1;fill:#4d4d4d;fill-opacity:1;stroke:#000000;stroke-width:0.065;stroke-linecap:butt;stroke-miterlimit:4;stroke-dasharray:none;stroke-dashoffset:0;stroke-opacity:1" />
    <path
       id="path4673"
       d="m 116.71614,29.729036 c -7.23744,0.136398 -14.52166,-0.133843 -21.70741,0.89769 -1.561069,0.279867 -3.261205,1.333353 -3.331352,3.082521 -0.220236,2.009362 0.228694,4.014819 0.174058,6.02751 0.08984,2.249808 0.08955,4.575329 0.954629,6.693747 1.170964,1.322652 3.038829,0.69195 4.562166,0.746002 1.363176,-0.219245 2.638229,0.217471 3.928019,-0.178008 -0.71181,0.894214 -1.693614,2.466943 -2.177896,3.097365 -0.496249,0.566998 -1.816989,1.514216 -1.519829,1.980541 2.642595,-0.141998 5.728335,-1.822109 7.204755,-3.942639 0.69485,0.0019 1.49804,-0.160482 2.71708,-0.07598 3.54987,-0.256789 6.1121,0.289294 9.54275,-0.8413 1.6962,-0.718683 2.47774,-2.589517 2.66725,-4.313616 0.57761,-3.351237 1.27628,-6.725816 1.21993,-10.140471 0.0656,-1.518628 -1.11536,-2.943763 -2.66133,-2.994721 -0.52246,-0.05555 -1.04859,-0.03155 -1.57282,-0.03864 z m -2.05232,0.670255 c 1.33401,9.81e-4 2.6666,0.03253 3.99218,0.145567 1.66079,0.574877 1.81794,2.636337 1.61777,4.125202 -0.27419,3.422233 -0.85393,6.816692 -1.59979,10.164763 -0.50172,1.677066 -2.35073,2.13368 -3.8801,2.302279 -2.39195,0.308691 -4.8147,0.224638 -7.21604,0.385626 -0.9675,-0.262326 -2.0351,0.09124 -3.22291,0.110698 -0.69515,1.459801 -3.52761,3.415946 -5.979661,3.709409 1.484402,-1.24854 2.892361,-3.430518 4.134301,-4.932702 -1.21441,0.077 -2.27957,0.04805 -3.419338,0.07316 -1.523803,0.03358 -3.04728,0.08166 -4.571347,0.103676 -1.745143,-0.443623 -1.639453,-2.56797 -1.811518,-3.994175 -0.286524,-3.058276 -0.319344,-6.137533 -0.419072,-9.202802 0.321442,-1.848914 2.477641,-2.159885 4.01839,-2.310121 4.756395,-0.646706 9.570335,-0.4872 14.356525,-0.64271 1.3312,-0.0092 2.6666,-0.03886 4.00061,-0.03787 z M 97.66011,51.354312 c -0.311856,0.246844 -0.317051,0.323796 0,0 z"
       style="opacity:1;fill:#4d4d4d;fill-opacity:1;stroke:#000000;stroke-width:0.065;stroke-linecap:butt;stroke-miterlimit:4;stroke-dasharray:none;stroke-dashoffset:0;stroke-opacity:1" />
    <path
       id="path4681"
       d="m 95.393382,34.885176 c 0.911193,-0.01678 1.82089,0.03527 2.725557,0.144287 0.670931,0.05339 1.379602,0.20571 2.031491,0.126238 0.40014,-0.03601 0.35271,0.725654 0.36951,1.077186 0.0387,2.001354 0.0387,4.003749 0.0293,6.00527 -0.002,0.806565 -0.35887,1.583076 -0.944138,2.133455 -0.746176,0.790979 -1.994886,1.1333 -3.000944,0.651652 -0.752235,-0.321549 -1.492854,-0.843634 -1.754649,-1.656787 -0.298497,-0.700568 -0.03373,-1.51364 0.486619,-2.033849 0.167029,-0.172273 0.52521,-0.547163 0.658469,-0.527915 -0.06354,0.233861 -0.127083,0.467721 -0.190618,0.701582 -0.399274,0.350927 0.535955,-0.543186 0.09751,-0.137694 -0.292922,0.265944 -0.460583,0.622407 -0.49918,1.098552 0.01515,0.73963 0.540316,1.376714 1.182807,1.697307 0.611531,0.384731 1.396254,0.537113 2.075104,0.235785 0.217905,-0.04325 0.741288,-0.435206 0.685578,-0.390939 -0.159724,0.150944 -0.432473,0.442275 -0.112007,0.116875 0.520009,-0.550066 0.680181,-1.330167 0.641406,-2.065705 -0.01282,-2.010753 0.02349,-4.023151 -0.06078,-6.032538 -0.01116,-0.146708 -0.0771,-0.364805 0.111124,-0.167088 -0.909243,0.02776 -1.814707,-0.146173 -2.72146,-0.21764 -0.724819,-0.07813 -1.453508,-0.0802 -2.181541,-0.07039 0.123513,-0.229152 0.24778,-0.458794 0.370821,-0.68764 z"
       style="opacity:1;fill:#4d4d4d;fill-opacity:1;stroke:#000000;stroke-width:0.065;stroke-linecap:butt;stroke-miterlimit:4;stroke-dasharray:none;stroke-dashoffset:0;stroke-opacity:1" />
    <path
       id="path4683"
       d="m 102.66813,34.885253 c -0.11006,0.186825 -0.19606,0.397704 -0.32105,0.569595 -0.2974,0.06346 -0.25087,0.330526 -0.23396,0.581203 -0.005,1.178446 0.0316,2.357953 -0.0522,3.534462 -0.0547,1.456196 -0.0802,2.914239 -0.0674,4.371263 0.0892,0.348375 -0.12031,0.811006 0.20387,1.05299 0.56797,0.259411 1.22129,0.145171 1.81892,0.06869 0.46281,-0.0745 0.92999,-0.117232 1.39735,-0.150399 0.11674,-0.230304 0.23348,-0.46061 0.35022,-0.690914 -0.75587,0.02972 -1.50023,0.169734 -2.2513,0.242419 -0.26144,-0.03956 -0.88817,0.131688 -0.80155,-0.257663 -0.0887,-1.034953 -0.0218,-2.075001 -0.02,-3.112045 0.31548,-0.149754 0.91439,-0.07052 1.33154,-0.186683 0.25395,-0.07313 0.6331,0.01633 0.68743,-0.318093 0.0734,-0.161127 0.14676,-0.322255 0.22015,-0.483381 -0.70105,0.121422 -1.40778,0.25453 -2.12196,0.234894 -0.19686,0.469377 -0.0629,-0.310544 -0.087,-0.480694 0.0375,-0.921512 0.0956,-1.842287 0.0747,-2.765114 3.7e-4,-0.508261 6.2e-4,-1.016522 0.002,-1.524783 0.92167,-0.0014 1.84334,-0.002 2.76501,-0.0013 0.12254,-0.227116 0.24507,-0.454232 0.36762,-0.681348 -1.08737,-2.95e-4 -2.17475,0.0012 -3.26212,-0.0031 z"
       style="opacity:1;fill:#4d4d4d;fill-opacity:1;stroke:#000000;stroke-width:0.065;stroke-linecap:butt;stroke-miterlimit:4;stroke-dasharray:none;stroke-dashoffset:0;stroke-opacity:1" />
    <path
       id="path4689"
       d="m 110.95516,36.435659 c -0.31991,-0.443689 -0.88182,-0.674137 -1.41536,-0.722796 -0.31096,0.0029 -0.61296,0.143022 -0.76768,0.325087 -0.38277,0.404862 0.55827,-0.565268 0.15754,-0.130768 -0.70797,0.840607 -1.33985,1.775625 -1.69782,2.821781 -0.28004,0.956564 -0.38329,1.959587 -0.4018,2.95335 0.003,0.832856 0.22305,1.771846 0.95882,2.262368 0.64251,0.381097 1.45625,0.594154 2.18552,0.350569 0.23614,-0.03018 0.64207,-0.388551 0.67471,-0.427064 -0.14467,0.126935 -0.53981,0.541845 -0.20962,0.179169 0.55542,-0.733496 0.58666,-1.683181 0.79018,-2.546699 0.0473,-0.199104 -0.0973,-0.803339 0.19985,-0.366479 -0.34854,0.02905 -0.7195,0.08159 -1.07694,0.131351 -0.5638,0.06029 -1.13083,0.10103 -1.69765,0.110021 0.12229,-0.227539 0.24458,-0.45508 0.36687,-0.682619 0.85956,-0.02031 1.7145,-0.123386 2.5628,-0.254185 0.45215,-0.143388 0.34847,0.585816 0.32854,0.873694 -0.22106,0.93348 -0.25856,1.968914 -0.87835,2.753492 -0.38889,0.418661 -0.82401,0.851701 -1.41122,0.953339 -0.78094,0.172282 -1.61007,-0.0562 -2.28699,-0.451809 -0.76883,-0.489067 -1.11693,-1.406461 -1.17388,-2.28263 -0.0504,-0.932905 0.0675,-1.869286 0.23679,-2.785522 0.17364,-0.960955 0.65033,-1.834477 1.19332,-2.63331 0.44173,-0.604646 0.87025,-1.263238 1.51492,-1.670837 0.67972,-0.356732 1.49334,-0.05526 2.07548,0.357352 0.13611,0.126461 0.53017,0.362086 0.22943,0.501966 -0.15249,0.127033 -0.30498,0.254277 -0.45746,0.381179 z"
       style="opacity:1;fill:#4d4d4d;fill-opacity:1;stroke:#000000;stroke-width:0.065;stroke-linecap:butt;stroke-miterlimit:4;stroke-dasharray:none;stroke-dashoffset:0;stroke-opacity:1" />
    <path
       id="path4691"
       d="m 114.97041,34.371351 c -0.009,1.511018 0.003,3.022247 -0.009,4.533165 -0.0226,0.464167 -0.0379,0.929167 -0.0898,1.3913 -0.23184,0.111909 -0.46368,0.223819 -0.69551,0.335728 0.0729,-0.551323 0.0884,-1.108424 0.11021,-1.663529 2.3e-4,-1.408539 0.001,-2.817097 -0.004,-4.225626 0.22902,-0.123649 0.45898,-0.247534 0.68742,-0.371038 z"
       style="opacity:1;fill:#4d4d4d;fill-opacity:1;stroke:#000000;stroke-width:0.065;stroke-linecap:butt;stroke-miterlimit:4;stroke-dasharray:none;stroke-dashoffset:0;stroke-opacity:1" />
    <path
       id="path4693"
       d="m 114.3268,44.249689 c -0.0938,0.0083 -0.18512,0.04308 -0.25382,0.109605 -0.12871,0.122661 -0.22344,0.275146 -0.34218,0.406859 -0.036,0.09731 -0.0682,0.205305 -0.0331,0.307773 0.0413,0.152513 0.12051,0.299816 0.25057,0.394234 0.10709,0.08941 0.25924,0.0958 0.38713,0.05375 0.22449,-0.07553 0.3982,-0.271006 0.47167,-0.493318 0.0263,-0.06427 0.0188,-0.13434 0.007,-0.201038 -0.0246,-0.170206 -0.17043,-0.304185 -0.33529,-0.338379 -0.0545,-0.0094 -0.11035,-0.01285 -0.16602,-0.01186 0.0358,-0.0758 0.0717,-0.151632 0.10749,-0.227435 -0.0311,-0.0028 -0.0626,-0.0029 -0.0939,-1.96e-4 z"
       style="opacity:1;fill:#4d4d4d;fill-opacity:1;stroke:#000000;stroke-width:0.065;stroke-linecap:butt;stroke-miterlimit:4;stroke-dasharray:none;stroke-dashoffset:0;stroke-opacity:1" />
  </g>
</svg>
