<?xml version="1.0" encoding="UTF-8" standalone="no"?>
<svg
   xmlns:dc="http://purl.org/dc/elements/1.1/"
   xmlns:cc="http://creativecommons.org/ns#"
   xmlns:rdf="http://www.w3.org/1999/02/22-rdf-syntax-ns#"
   xmlns:svg="http://www.w3.org/2000/svg"
   xmlns="http://www.w3.org/2000/svg"
   id="svg8"
   version="1.1"
   viewBox="0 0 55.330959 35.936691"
   height="35.936691mm"
   width="55.330959mm">
  <defs
     id="defs2" />
  <metadata
     id="metadata5">
    <rdf:RDF>
      <cc:Work
         rdf:about="">
        <dc:format>image/svg+xml</dc:format>
        <dc:type
           rdf:resource="http://purl.org/dc/dcmitype/StillImage" />
        <dc:title></dc:title>
      </cc:Work>
    </rdf:RDF>
  </metadata>
  <g
     transform="translate(-32.73743,-19.658512)"
     id="layer1">
    <path
       id="rect4485"
       d="m 41.961314,22.781464 c 4.255518,-1.878697 12.287864,-1.578721 18.441596,-1.578721 6.153732,0 14.186079,-0.299977 18.441597,1.578721 4.255518,1.878698 5.559128,3.971518 6.681738,6.681738 1.12261,2.71022 1.039435,5.43448 1.039435,8.15172 0,2.71724 0.08317,5.441499 -1.039435,8.151719 -1.12261,2.71022 -2.430337,4.79186 -6.681738,6.681739 -4.251401,1.889879 -12.286333,1.606398 -18.441596,1.606398 -6.155263,0 -14.190195,0.283481 -18.441597,-1.606398 -4.251402,-1.889879 -5.559129,-3.971519 -6.681739,-6.681739 -1.12261,-2.71022 -1.039435,-5.434479 -1.039435,-8.151719 0,-2.71724 -0.08317,-5.4415 1.039435,-8.15172 1.12261,-2.71022 2.426221,-4.803041 6.681739,-6.681738 z"
       style="opacity:1;fill:#ff5555;fill-opacity:1;stroke:#000000;stroke-width:3;stroke-linecap:butt;stroke-miterlimit:4;stroke-dasharray:none;stroke-dashoffset:0;stroke-opacity:1" />
    <path
       transform="scale(0.26458333)"
       id="path4491"
       d="m 205.76953,118.53125 c -1.27569,-0.0155 -2.83339,0.18778 -3.96484,1.0625 -2.26291,1.74945 -1.79492,5.31641 -1.79492,5.31641 v 16.75195 16.75 c 0,0 -0.46799,3.56891 1.79492,5.31836 2.2629,1.74944 6.23437,0.8125 6.23437,0.8125 L 259.26953,143.375 c 0.91372,-0.40606 1.5555,-0.79909 1.55859,-1.71289 -0.003,-0.9138 -0.64487,-1.30878 -1.55859,-1.71484 l -51.23047,-21.16602 c 0,0 -0.99384,-0.2345 -2.26953,-0.25 z"
       style="opacity:1;fill:#ffd5d5;fill-opacity:1;stroke:#000000;stroke-width:3.77952766;stroke-linecap:butt;stroke-miterlimit:4;stroke-dasharray:none;stroke-dashoffset:0;stroke-opacity:1" />
    <path
       id="path4497"
       d="M 75.102736,24.785986 C 68.266718,23.06876 44.90128,19.240143 39.221802,29.596837 c -5.679478,10.356693 -0.400904,18.976137 4.075861,20.446119 4.476764,1.469983 4.437327,-1.664037 2.939965,-4.543582 -1.497362,-2.879544 -4.810852,-9.755339 2.80633,-15.234364 7.617182,-5.479025 19.727309,-4.090523 24.054257,-1.46998 4.326949,2.620543 8.840539,-2.291818 2.004521,-4.009044 z"
       style="opacity:1;fill:#ffaaaa;fill-opacity:1;stroke:none;stroke-width:0.26458332;stroke-linecap:butt;stroke-miterlimit:4;stroke-dasharray:none;stroke-dashoffset:0;stroke-opacity:1" />
    <path
       transform="scale(0.26458333)"
       id="path4501"
       d="m 325.2832,117.52148 c -34.99644,3.89342 -20.74212,77.1701 -76.28125,76.91993 -26.96195,-0.12146 -64.88381,-0.0779 -83.93554,6.04687 16.89149,4.63654 42.7981,3.8125 63.22851,3.8125 23.26399,0 53.63093,1.07254 69.69922,-6.07031 16.06829,-7.14285 21.01097,-15.01056 25.25391,-25.25391 4.24291,-10.24335 3.92968,-20.54066 3.92968,-30.81054 0,-8.21152 0.19381,-16.43978 -1.89453,-24.64454 z"
       style="opacity:0.419;fill:#000000;fill-opacity:1;stroke:none;stroke-width:0.99999994;stroke-linecap:butt;stroke-miterlimit:4;stroke-dasharray:none;stroke-dashoffset:0;stroke-opacity:1" />
    <path
       id="path4507"
       d="m 53.394157,32.04342 c -0.598728,0.462875 -0.34127,1.272998 -0.34127,1.272998 v 4.432286 4.431771 c 0,0 -0.257458,0.827344 0.34127,1.29022 0.227597,0.175956 0.52012,0.248621 0.795816,0.271817 l 0.0026,-0.02532 c -0.09449,-3.685267 -0.09457,-9.946539 -0.09457,-10.277268 0,-0.33073 0.377018,-1.008695 1.039215,-0.756026 0.485193,0.185132 13.323733,5.386234 13.323733,5.386234 l 0.0516,0.02697 c 0.203833,-0.09001 0.414182,-0.190421 0.414713,-0.348396 0,-0.179167 -0.0871,-0.212645 -0.328856,-0.320082 L 55.008232,31.821136 c 0,0 -0.227434,-0.05884 -0.565002,-0.06089 -0.337569,-0.0021 -0.74971,0.05173 -1.049073,0.28317 z"
       style="opacity:1;fill:#800000;fill-opacity:1;stroke:none;stroke-width:0.26458332;stroke-linecap:butt;stroke-miterlimit:4;stroke-dasharray:none;stroke-dashoffset:0;stroke-opacity:1" />
    <path
       transform="scale(0.26458333)"
       style="opacity:1;fill:none;fill-opacity:1;stroke:#550000;stroke-width:3.77952766;stroke-linecap:butt;stroke-miterlimit:4;stroke-dasharray:none;stroke-dashoffset:0;stroke-opacity:1"
       d="m 205.76953,118.53125 c -1.27569,-0.0155 -2.83339,0.18778 -3.96484,1.0625 -2.26291,1.74945 -1.79492,5.31641 -1.79492,5.31641 v 16.75195 16.75 c 0,0 -0.46799,3.56891 1.79492,5.31836 2.2629,1.74944 6.23437,0.8125 6.23437,0.8125 L 259.26953,143.375 c 0.91372,-0.40606 1.5555,-0.79909 1.55859,-1.71289 -0.003,-0.9138 -0.64487,-1.30878 -1.55859,-1.71484 l -51.23047,-21.16602 c 0,0 -0.99384,-0.2345 -2.26953,-0.25 z"
       id="path4512" />
  </g>
</svg>
